<?xml version="1.0" encoding="utf-8" standalone="no"?>
<!DOCTYPE svg PUBLIC "-//W3C//DTD SVG 1.1//EN"
  "http://www.w3.org/Graphics/SVG/1.1/DTD/svg11.dtd">
<svg xmlns:xlink="http://www.w3.org/1999/xlink" width="2141.777187pt" height="376.299688pt" viewBox="0 0 2141.777187 376.299688" xmlns="http://www.w3.org/2000/svg" version="1.1">
 <metadata>
  <rdf:RDF xmlns:dc="http://purl.org/dc/elements/1.1/" xmlns:cc="http://creativecommons.org/ns#" xmlns:rdf="http://www.w3.org/1999/02/22-rdf-syntax-ns#">
   <cc:Work>
    <dc:type rdf:resource="http://purl.org/dc/dcmitype/StillImage"/>
    <dc:date>2023-05-29T21:21:10.438232</dc:date>
    <dc:format>image/svg+xml</dc:format>
    <dc:creator>
     <cc:Agent>
      <dc:title>Matplotlib v3.5.0, https://matplotlib.org/</dc:title>
     </cc:Agent>
    </dc:creator>
   </cc:Work>
  </rdf:RDF>
 </metadata>
 <defs>
  <style type="text/css">*{stroke-linejoin: round; stroke-linecap: butt}</style>
 </defs>
 <g id="figure_1">
  <g id="patch_1">
   <path d="M 0 376.299688 
L 2141.777187 376.299688 
L 2141.777187 0 
L 0 0 
z
" style="fill: #ffffff"/>
  </g>
  <g id="axes_1">
   <g id="patch_2">
    <path d="M 125.777187 339.84 
L 2134.577188 339.84 
L 2134.577188 7.2 
L 125.777187 7.2 
z
" style="fill: #ffffff"/>
   </g>
   <g id="patch_3">
    <path d="M 152.489953 46119.831005 
L 163.17506 46119.831005 
L 163.17506 22.32 
L 152.489953 22.32 
z
" clip-path="url(#p92b894fef2)" style="fill: #990344"/>
   </g>
   <g id="patch_4">
    <path d="M 195.230379 46119.831005 
L 205.915485 46119.831005 
L 205.915485 54.1713 
L 195.230379 54.1713 
z
" clip-path="url(#p92b894fef2)" style="fill: #990344"/>
   </g>
   <g id="patch_5">
    <path d="M 237.970805 46119.831005 
L 248.655911 46119.831005 
L 248.655911 58.394872 
L 237.970805 58.394872 
z
" clip-path="url(#p92b894fef2)" style="fill: #990344"/>
   </g>
   <g id="patch_6">
    <path d="M 280.71123 46119.831005 
L 291.396336 46119.831005 
L 291.396336 60.392195 
L 280.71123 60.392195 
z
" clip-path="url(#p92b894fef2)" style="fill: #990344"/>
   </g>
   <g id="patch_7">
    <path d="M 323.451656 46119.831005 
L 334.136762 46119.831005 
L 334.136762 63.799909 
L 323.451656 63.799909 
z
" clip-path="url(#p92b894fef2)" style="fill: #990344"/>
   </g>
   <g id="patch_8">
    <path d="M 366.192081 46119.831005 
L 376.877187 46119.831005 
L 376.877187 64.105546 
L 366.192081 64.105546 
z
" clip-path="url(#p92b894fef2)" style="fill: #990344"/>
   </g>
   <g id="patch_9">
    <path d="M 408.932507 46119.831005 
L 419.617613 46119.831005 
L 419.617613 64.176768 
L 408.932507 64.176768 
z
" clip-path="url(#p92b894fef2)" style="fill: #990344"/>
   </g>
   <g id="patch_10">
    <path d="M 451.672932 46119.831005 
L 462.358039 46119.831005 
L 462.358039 65.050012 
L 451.672932 65.050012 
z
" clip-path="url(#p92b894fef2)" style="fill: #990344"/>
   </g>
   <g id="patch_11">
    <path d="M 494.413358 46119.831005 
L 505.098464 46119.831005 
L 505.098464 65.338431 
L 494.413358 65.338431 
z
" clip-path="url(#p92b894fef2)" style="fill: #990344"/>
   </g>
   <g id="patch_12">
    <path d="M 537.153783 46119.831005 
L 547.83889 46119.831005 
L 547.83889 72.012137 
L 537.153783 72.012137 
z
" clip-path="url(#p92b894fef2)" style="fill: #990344"/>
   </g>
   <g id="patch_13">
    <path d="M 579.894209 46119.831005 
L 590.579315 46119.831005 
L 590.579315 81.615018 
L 579.894209 81.615018 
z
" clip-path="url(#p92b894fef2)" style="fill: #990344"/>
   </g>
   <g id="patch_14">
    <path d="M 622.634634 46119.831005 
L 633.319741 46119.831005 
L 633.319741 88.891838 
L 622.634634 88.891838 
z
" clip-path="url(#p92b894fef2)" style="fill: #990344"/>
   </g>
   <g id="patch_15">
    <path d="M 665.37506 46119.831005 
L 676.060166 46119.831005 
L 676.060166 96.204913 
L 665.37506 96.204913 
z
" clip-path="url(#p92b894fef2)" style="fill: #990344"/>
   </g>
   <g id="patch_16">
    <path d="M 708.115485 46119.831005 
L 718.800592 46119.831005 
L 718.800592 98.294688 
L 708.115485 98.294688 
z
" clip-path="url(#p92b894fef2)" style="fill: #990344"/>
   </g>
   <g id="patch_17">
    <path d="M 750.855911 46119.831005 
L 761.541017 46119.831005 
L 761.541017 102.752969 
L 750.855911 102.752969 
z
" clip-path="url(#p92b894fef2)" style="fill: #990344"/>
   </g>
   <g id="patch_18">
    <path d="M 793.596336 46119.831005 
L 804.281443 46119.831005 
L 804.281443 106.1932 
L 793.596336 106.1932 
z
" clip-path="url(#p92b894fef2)" style="fill: #990344"/>
   </g>
   <g id="patch_19">
    <path d="M 836.336762 46119.831005 
L 847.021868 46119.831005 
L 847.021868 106.200613 
L 836.336762 106.200613 
z
" clip-path="url(#p92b894fef2)" style="fill: #990344"/>
   </g>
   <g id="patch_20">
    <path d="M 879.077188 46119.831005 
L 889.762294 46119.831005 
L 889.762294 107.581968 
L 879.077188 107.581968 
z
" clip-path="url(#p92b894fef2)" style="fill: #990344"/>
   </g>
   <g id="patch_21">
    <path d="M 921.817613 46119.831005 
L 932.502719 46119.831005 
L 932.502719 113.268907 
L 921.817613 113.268907 
z
" clip-path="url(#p92b894fef2)" style="fill: #990344"/>
   </g>
   <g id="patch_22">
    <path d="M 964.558039 46119.831005 
L 975.243145 46119.831005 
L 975.243145 115.461244 
L 964.558039 115.461244 
z
" clip-path="url(#p92b894fef2)" style="fill: #990344"/>
   </g>
   <g id="patch_23">
    <path d="M 1007.298464 46119.831005 
L 1017.98357 46119.831005 
L 1017.98357 117.086615 
L 1007.298464 117.086615 
z
" clip-path="url(#p92b894fef2)" style="fill: #990344"/>
   </g>
   <g id="patch_24">
    <path d="M 1050.03889 46119.831005 
L 1060.723996 46119.831005 
L 1060.723996 120.649807 
L 1050.03889 120.649807 
z
" clip-path="url(#p92b894fef2)" style="fill: #990344"/>
   </g>
   <g id="patch_25">
    <path d="M 1092.779315 46119.831005 
L 1103.464422 46119.831005 
L 1103.464422 121.27773 
L 1092.779315 121.27773 
z
" clip-path="url(#p92b894fef2)" style="fill: #990344"/>
   </g>
   <g id="patch_26">
    <path d="M 1135.519741 46119.831005 
L 1146.204847 46119.831005 
L 1146.204847 121.974936 
L 1135.519741 121.974936 
z
" clip-path="url(#p92b894fef2)" style="fill: #990344"/>
   </g>
   <g id="patch_27">
    <path d="M 1178.260166 46119.831005 
L 1188.945273 46119.831005 
L 1188.945273 122.146454 
L 1178.260166 122.146454 
z
" clip-path="url(#p92b894fef2)" style="fill: #990344"/>
   </g>
   <g id="patch_28">
    <path d="M 1221.000592 46119.831005 
L 1231.685698 46119.831005 
L 1231.685698 122.324568 
L 1221.000592 122.324568 
z
" clip-path="url(#p92b894fef2)" style="fill: #990344"/>
   </g>
   <g id="patch_29">
    <path d="M 1263.741017 46119.831005 
L 1274.426124 46119.831005 
L 1274.426124 122.39626 
L 1263.741017 122.39626 
z
" clip-path="url(#p92b894fef2)" style="fill: #990344"/>
   </g>
   <g id="patch_30">
    <path d="M 1306.481443 46119.831005 
L 1317.166549 46119.831005 
L 1317.166549 123.502339 
L 1306.481443 123.502339 
z
" clip-path="url(#p92b894fef2)" style="fill: #990344"/>
   </g>
   <g id="patch_31">
    <path d="M 1349.221868 46119.831005 
L 1359.906975 46119.831005 
L 1359.906975 123.536255 
L 1349.221868 123.536255 
z
" clip-path="url(#p92b894fef2)" style="fill: #990344"/>
   </g>
   <g id="patch_32">
    <path d="M 1391.962294 46119.831005 
L 1402.6474 46119.831005 
L 1402.6474 124.036704 
L 1391.962294 124.036704 
z
" clip-path="url(#p92b894fef2)" style="fill: #990344"/>
   </g>
   <g id="patch_33">
    <path d="M 1434.702719 46119.831005 
L 1445.387826 46119.831005 
L 1445.387826 127.518173 
L 1434.702719 127.518173 
z
" clip-path="url(#p92b894fef2)" style="fill: #990344"/>
   </g>
   <g id="patch_34">
    <path d="M 1477.443145 46119.831005 
L 1488.128251 46119.831005 
L 1488.128251 129.469689 
L 1477.443145 129.469689 
z
" clip-path="url(#p92b894fef2)" style="fill: #990344"/>
   </g>
   <g id="patch_35">
    <path d="M 1520.18357 46119.831005 
L 1530.868677 46119.831005 
L 1530.868677 130.5952 
L 1520.18357 130.5952 
z
" clip-path="url(#p92b894fef2)" style="fill: #990344"/>
   </g>
   <g id="patch_36">
    <path d="M 1562.923996 46119.831005 
L 1573.609102 46119.831005 
L 1573.609102 131.082379 
L 1562.923996 131.082379 
z
" clip-path="url(#p92b894fef2)" style="fill: #990344"/>
   </g>
   <g id="patch_37">
    <path d="M 1605.664422 46119.831005 
L 1616.349528 46119.831005 
L 1616.349528 131.738708 
L 1605.664422 131.738708 
z
" clip-path="url(#p92b894fef2)" style="fill: #990344"/>
   </g>
   <g id="patch_38">
    <path d="M 1648.404847 46119.831005 
L 1659.089953 46119.831005 
L 1659.089953 135.992242 
L 1648.404847 135.992242 
z
" clip-path="url(#p92b894fef2)" style="fill: #990344"/>
   </g>
   <g id="patch_39">
    <path d="M 1691.145273 46119.831005 
L 1701.830379 46119.831005 
L 1701.830379 136.593702 
L 1691.145273 136.593702 
z
" clip-path="url(#p92b894fef2)" style="fill: #990344"/>
   </g>
   <g id="patch_40">
    <path d="M 1733.885698 46119.831005 
L 1744.570805 46119.831005 
L 1744.570805 137.687741 
L 1733.885698 137.687741 
z
" clip-path="url(#p92b894fef2)" style="fill: #990344"/>
   </g>
   <g id="patch_41">
    <path d="M 1776.626124 46119.831005 
L 1787.31123 46119.831005 
L 1787.31123 137.859361 
L 1776.626124 137.859361 
z
" clip-path="url(#p92b894fef2)" style="fill: #990344"/>
   </g>
   <g id="patch_42">
    <path d="M 1819.366549 46119.831005 
L 1830.051656 46119.831005 
L 1830.051656 138.026859 
L 1819.366549 138.026859 
z
" clip-path="url(#p92b894fef2)" style="fill: #990344"/>
   </g>
   <g id="patch_43">
    <path d="M 1862.106975 46119.831005 
L 1872.792081 46119.831005 
L 1872.792081 138.204257 
L 1862.106975 138.204257 
z
" clip-path="url(#p92b894fef2)" style="fill: #990344"/>
   </g>
   <g id="patch_44">
    <path d="M 1904.8474 46119.831005 
L 1915.532507 46119.831005 
L 1915.532507 138.64464 
L 1904.8474 138.64464 
z
" clip-path="url(#p92b894fef2)" style="fill: #990344"/>
   </g>
   <g id="patch_45">
    <path d="M 1947.587826 46119.831005 
L 1958.272932 46119.831005 
L 1958.272932 139.100861 
L 1947.587826 139.100861 
z
" clip-path="url(#p92b894fef2)" style="fill: #990344"/>
   </g>
   <g id="patch_46">
    <path d="M 1990.328251 46119.831005 
L 2001.013358 46119.831005 
L 2001.013358 139.10382 
L 1990.328251 139.10382 
z
" clip-path="url(#p92b894fef2)" style="fill: #990344"/>
   </g>
   <g id="patch_47">
    <path d="M 2033.068677 46119.831005 
L 2043.753783 46119.831005 
L 2043.753783 139.297057 
L 2033.068677 139.297057 
z
" clip-path="url(#p92b894fef2)" style="fill: #990344"/>
   </g>
   <g id="patch_48">
    <path d="M 2075.809102 46119.831005 
L 2086.494209 46119.831005 
L 2086.494209 139.440964 
L 2075.809102 139.440964 
z
" clip-path="url(#p92b894fef2)" style="fill: #990344"/>
   </g>
   <g id="patch_49">
    <path d="M 163.17506 46119.831005 
L 173.860166 46119.831005 
L 173.860166 27.664804 
L 163.17506 27.664804 
z
" clip-path="url(#p92b894fef2)" style="fill: #12009e"/>
   </g>
   <g id="patch_50">
    <path d="M 205.915485 46119.831005 
L 216.600592 46119.831005 
L 216.600592 48.0267 
L 205.915485 48.0267 
z
" clip-path="url(#p92b894fef2)" style="fill: #12009e"/>
   </g>
   <g id="patch_51">
    <path d="M 248.655911 46119.831005 
L 259.341017 46119.831005 
L 259.341017 63.865081 
L 248.655911 63.865081 
z
" clip-path="url(#p92b894fef2)" style="fill: #12009e"/>
   </g>
   <g id="patch_52">
    <path d="M 291.396336 46119.831005 
L 302.081443 46119.831005 
L 302.081443 44.561655 
L 291.396336 44.561655 
z
" clip-path="url(#p92b894fef2)" style="fill: #12009e"/>
   </g>
   <g id="patch_53">
    <path d="M 334.136762 46119.831005 
L 344.821868 46119.831005 
L 344.821868 65.012461 
L 334.136762 65.012461 
z
" clip-path="url(#p92b894fef2)" style="fill: #12009e"/>
   </g>
   <g id="patch_54">
    <path d="M 376.877187 46119.831005 
L 387.562294 46119.831005 
L 387.562294 91.420737 
L 376.877187 91.420737 
z
" clip-path="url(#p92b894fef2)" style="fill: #12009e"/>
   </g>
   <g id="patch_55">
    <path d="M 419.617613 46119.831005 
L 430.302719 46119.831005 
L 430.302719 39.988233 
L 419.617613 39.988233 
z
" clip-path="url(#p92b894fef2)" style="fill: #12009e"/>
   </g>
   <g id="patch_56">
    <path d="M 462.358039 46119.831005 
L 473.043145 46119.831005 
L 473.043145 87.237287 
L 462.358039 87.237287 
z
" clip-path="url(#p92b894fef2)" style="fill: #12009e"/>
   </g>
   <g id="patch_57">
    <path d="M 505.098464 46119.831005 
L 515.78357 46119.831005 
L 515.78357 48.072198 
L 505.098464 48.072198 
z
" clip-path="url(#p92b894fef2)" style="fill: #12009e"/>
   </g>
   <g id="patch_58">
    <path d="M 547.83889 46119.831005 
L 558.523996 46119.831005 
L 558.523996 75.765848 
L 547.83889 75.765848 
z
" clip-path="url(#p92b894fef2)" style="fill: #12009e"/>
   </g>
   <g id="patch_59">
    <path d="M 590.579315 46119.831005 
L 601.264422 46119.831005 
L 601.264422 130.825521 
L 590.579315 130.825521 
z
" clip-path="url(#p92b894fef2)" style="fill: #12009e"/>
   </g>
   <g id="patch_60">
    <path d="M 633.319741 46119.831005 
L 644.004847 46119.831005 
L 644.004847 129.35674 
L 633.319741 129.35674 
z
" clip-path="url(#p92b894fef2)" style="fill: #12009e"/>
   </g>
   <g id="patch_61">
    <path d="M 676.060166 46119.831005 
L 686.745273 46119.831005 
L 686.745273 109.7349 
L 676.060166 109.7349 
z
" clip-path="url(#p92b894fef2)" style="fill: #12009e"/>
   </g>
   <g id="patch_62">
    <path d="M 718.800592 46119.831005 
L 729.485698 46119.831005 
L 729.485698 92.836274 
L 718.800592 92.836274 
z
" clip-path="url(#p92b894fef2)" style="fill: #12009e"/>
   </g>
   <g id="patch_63">
    <path d="M 761.541017 46119.831005 
L 772.226124 46119.831005 
L 772.226124 139.797285 
L 761.541017 139.797285 
z
" clip-path="url(#p92b894fef2)" style="fill: #12009e"/>
   </g>
   <g id="patch_64">
    <path d="M 804.281443 46119.831005 
L 814.966549 46119.831005 
L 814.966549 180.092239 
L 804.281443 180.092239 
z
" clip-path="url(#p92b894fef2)" style="fill: #12009e"/>
   </g>
   <g id="patch_65">
    <path d="M 847.021868 46119.831005 
L 857.706975 46119.831005 
L 857.706975 147.627845 
L 847.021868 147.627845 
z
" clip-path="url(#p92b894fef2)" style="fill: #12009e"/>
   </g>
   <g id="patch_66">
    <path d="M 889.762294 46119.831005 
L 900.4474 46119.831005 
L 900.4474 142.228911 
L 889.762294 142.228911 
z
" clip-path="url(#p92b894fef2)" style="fill: #12009e"/>
   </g>
   <g id="patch_67">
    <path d="M 932.502719 46119.831005 
L 943.187826 46119.831005 
L 943.187826 132.550954 
L 932.502719 132.550954 
z
" clip-path="url(#p92b894fef2)" style="fill: #12009e"/>
   </g>
   <g id="patch_68">
    <path d="M 975.243145 46119.831005 
L 985.928251 46119.831005 
L 985.928251 199.469643 
L 975.243145 199.469643 
z
" clip-path="url(#p92b894fef2)" style="fill: #12009e"/>
   </g>
   <g id="patch_69">
    <path d="M 1017.98357 46119.831005 
L 1028.668677 46119.831005 
L 1028.668677 236.482972 
L 1017.98357 236.482972 
z
" clip-path="url(#p92b894fef2)" style="fill: #12009e"/>
   </g>
   <g id="patch_70">
    <path d="M 1060.723996 46119.831005 
L 1071.409102 46119.831005 
L 1071.409102 285.910992 
L 1060.723996 285.910992 
z
" clip-path="url(#p92b894fef2)" style="fill: #12009e"/>
   </g>
   <g id="patch_71">
    <path d="M 1103.464422 46119.831005 
L 1114.149528 46119.831005 
L 1114.149528 246.541452 
L 1103.464422 246.541452 
z
" clip-path="url(#p92b894fef2)" style="fill: #12009e"/>
   </g>
   <g id="patch_72">
    <path d="M 1146.204847 46119.831005 
L 1156.889953 46119.831005 
L 1156.889953 236.165281 
L 1146.204847 236.165281 
z
" clip-path="url(#p92b894fef2)" style="fill: #12009e"/>
   </g>
   <g id="patch_73">
    <path d="M 1188.945273 46119.831005 
L 1199.630379 46119.831005 
L 1199.630379 251.508847 
L 1188.945273 251.508847 
z
" clip-path="url(#p92b894fef2)" style="fill: #12009e"/>
   </g>
   <g id="patch_74">
    <path d="M 1231.685698 46119.831005 
L 1242.370805 46119.831005 
L 1242.370805 296.256771 
L 1231.685698 296.256771 
z
" clip-path="url(#p92b894fef2)" style="fill: #12009e"/>
   </g>
   <g id="patch_75">
    <path d="M 1274.426124 46119.831005 
L 1285.11123 46119.831005 
L 1285.11123 215.397997 
L 1274.426124 215.397997 
z
" clip-path="url(#p92b894fef2)" style="fill: #12009e"/>
   </g>
   <g id="patch_76">
    <path d="M 1317.166549 46119.831005 
L 1327.851656 46119.831005 
L 1327.851656 258.979399 
L 1317.166549 258.979399 
z
" clip-path="url(#p92b894fef2)" style="fill: #12009e"/>
   </g>
   <g id="patch_77">
    <path d="M 1359.906975 46119.831005 
L 1370.592081 46119.831005 
L 1370.592081 281.210596 
L 1359.906975 281.210596 
z
" clip-path="url(#p92b894fef2)" style="fill: #12009e"/>
   </g>
   <g id="patch_78">
    <path d="M 1402.6474 46119.831005 
L 1413.332507 46119.831005 
L 1413.332507 277.99372 
L 1402.6474 277.99372 
z
" clip-path="url(#p92b894fef2)" style="fill: #12009e"/>
   </g>
   <g id="patch_79">
    <path d="M 1445.387826 46119.831005 
L 1456.072932 46119.831005 
L 1456.072932 265.647135 
L 1445.387826 265.647135 
z
" clip-path="url(#p92b894fef2)" style="fill: #12009e"/>
   </g>
   <g id="patch_80">
    <path d="M 1488.128251 46119.831005 
L 1498.813358 46119.831005 
L 1498.813358 125.324088 
L 1488.128251 125.324088 
z
" clip-path="url(#p92b894fef2)" style="fill: #12009e"/>
   </g>
   <g id="patch_81">
    <path d="M 1530.868677 46119.831005 
L 1541.553783 46119.831005 
L 1541.553783 136.456722 
L 1530.868677 136.456722 
z
" clip-path="url(#p92b894fef2)" style="fill: #12009e"/>
   </g>
   <g id="patch_82">
    <path d="M 1573.609102 46119.831005 
L 1584.294209 46119.831005 
L 1584.294209 148.355275 
L 1573.609102 148.355275 
z
" clip-path="url(#p92b894fef2)" style="fill: #12009e"/>
   </g>
   <g id="patch_83">
    <path d="M 1616.349528 46119.831005 
L 1627.034634 46119.831005 
L 1627.034634 175.909913 
L 1616.349528 175.909913 
z
" clip-path="url(#p92b894fef2)" style="fill: #12009e"/>
   </g>
   <g id="patch_84">
    <path d="M 1659.089953 46119.831005 
L 1669.77506 46119.831005 
L 1669.77506 279.32509 
L 1659.089953 279.32509 
z
" clip-path="url(#p92b894fef2)" style="fill: #12009e"/>
   </g>
   <g id="patch_85">
    <path d="M 1701.830379 46119.831005 
L 1712.515485 46119.831005 
L 1712.515485 263.70231 
L 1701.830379 263.70231 
z
" clip-path="url(#p92b894fef2)" style="fill: #12009e"/>
   </g>
   <g id="patch_86">
    <path d="M 1744.570805 46119.831005 
L 1755.255911 46119.831005 
L 1755.255911 324.72 
L 1744.570805 324.72 
z
" clip-path="url(#p92b894fef2)" style="fill: #12009e"/>
   </g>
   <g id="patch_87">
    <path d="M 1787.31123 46119.831005 
L 1797.996336 46119.831005 
L 1797.996336 309.786534 
L 1787.31123 309.786534 
z
" clip-path="url(#p92b894fef2)" style="fill: #12009e"/>
   </g>
   <g id="patch_88">
    <path d="M 1830.051656 46119.831005 
L 1840.736762 46119.831005 
L 1840.736762 295.067005 
L 1830.051656 295.067005 
z
" clip-path="url(#p92b894fef2)" style="fill: #12009e"/>
   </g>
   <g id="patch_89">
    <path d="M 1872.792081 46119.831005 
L 1883.477187 46119.831005 
L 1883.477187 271.201758 
L 1872.792081 271.201758 
z
" clip-path="url(#p92b894fef2)" style="fill: #12009e"/>
   </g>
   <g id="patch_90">
    <path d="M 1915.532507 46119.831005 
L 1926.217613 46119.831005 
L 1926.217613 93.730773 
L 1915.532507 93.730773 
z
" clip-path="url(#p92b894fef2)" style="fill: #12009e"/>
   </g>
   <g id="patch_91">
    <path d="M 1958.272932 46119.831005 
L 1968.958039 46119.831005 
L 1968.958039 134.104921 
L 1958.272932 134.104921 
z
" clip-path="url(#p92b894fef2)" style="fill: #12009e"/>
   </g>
   <g id="patch_92">
    <path d="M 2001.013358 46119.831005 
L 2011.698464 46119.831005 
L 2011.698464 296.429251 
L 2001.013358 296.429251 
z
" clip-path="url(#p92b894fef2)" style="fill: #12009e"/>
   </g>
   <g id="patch_93">
    <path d="M 2043.753783 46119.831005 
L 2054.43889 46119.831005 
L 2054.43889 308.075913 
L 2043.753783 308.075913 
z
" clip-path="url(#p92b894fef2)" style="fill: #12009e"/>
   </g>
   <g id="patch_94">
    <path d="M 2086.494209 46119.831005 
L 2097.179315 46119.831005 
L 2097.179315 284.645064 
L 2086.494209 284.645064 
z
" clip-path="url(#p92b894fef2)" style="fill: #12009e"/>
   </g>
   <g id="patch_95">
    <path d="M 173.860166 46119.831005 
L 184.545273 46119.831005 
L 184.545273 60.990168 
L 173.860166 60.990168 
z
" clip-path="url(#p92b894fef2)" style="fill: #fb8500"/>
   </g>
   <g id="patch_96">
    <path d="M 216.600592 46119.831005 
L 227.285698 46119.831005 
L 227.285698 73.123267 
L 216.600592 73.123267 
z
" clip-path="url(#p92b894fef2)" style="fill: #fb8500"/>
   </g>
   <g id="patch_97">
    <path d="M 259.341017 46119.831005 
L 270.026124 46119.831005 
L 270.026124 78.510233 
L 259.341017 78.510233 
z
" clip-path="url(#p92b894fef2)" style="fill: #fb8500"/>
   </g>
   <g id="patch_98">
    <path d="M 302.081443 46119.831005 
L 312.766549 46119.831005 
L 312.766549 74.460759 
L 302.081443 74.460759 
z
" clip-path="url(#p92b894fef2)" style="fill: #fb8500"/>
   </g>
   <g id="patch_99">
    <path d="M 344.821868 46119.831005 
L 355.506975 46119.831005 
L 355.506975 85.542904 
L 344.821868 85.542904 
z
" clip-path="url(#p92b894fef2)" style="fill: #fb8500"/>
   </g>
   <g id="patch_100">
    <path d="M 387.562294 46119.831005 
L 398.2474 46119.831005 
L 398.2474 83.924492 
L 387.562294 83.924492 
z
" clip-path="url(#p92b894fef2)" style="fill: #fb8500"/>
   </g>
   <g id="patch_101">
    <path d="M 430.302719 46119.831005 
L 440.987826 46119.831005 
L 440.987826 85.422856 
L 430.302719 85.422856 
z
" clip-path="url(#p92b894fef2)" style="fill: #fb8500"/>
   </g>
   <g id="patch_102">
    <path d="M 473.043145 46119.831005 
L 483.728251 46119.831005 
L 483.728251 91.863067 
L 473.043145 91.863067 
z
" clip-path="url(#p92b894fef2)" style="fill: #fb8500"/>
   </g>
   <g id="patch_103">
    <path d="M 515.78357 46119.831005 
L 526.468677 46119.831005 
L 526.468677 46119.831005 
L 515.78357 46119.831005 
z
" clip-path="url(#p92b894fef2)" style="fill: #fb8500"/>
   </g>
   <g id="patch_104">
    <path d="M 558.523996 46119.831005 
L 569.209102 46119.831005 
L 569.209102 83.161913 
L 558.523996 83.161913 
z
" clip-path="url(#p92b894fef2)" style="fill: #fb8500"/>
   </g>
   <g id="patch_105">
    <path d="M 601.264422 46119.831005 
L 611.949528 46119.831005 
L 611.949528 105.553207 
L 601.264422 105.553207 
z
" clip-path="url(#p92b894fef2)" style="fill: #fb8500"/>
   </g>
   <g id="patch_106">
    <path d="M 644.004847 46119.831005 
L 654.689953 46119.831005 
L 654.689953 108.743901 
L 644.004847 108.743901 
z
" clip-path="url(#p92b894fef2)" style="fill: #fb8500"/>
   </g>
   <g id="patch_107">
    <path d="M 686.745273 46119.831005 
L 697.430379 46119.831005 
L 697.430379 101.963644 
L 686.745273 101.963644 
z
" clip-path="url(#p92b894fef2)" style="fill: #fb8500"/>
   </g>
   <g id="patch_108">
    <path d="M 729.485698 46119.831005 
L 740.170805 46119.831005 
L 740.170805 97.558279 
L 729.485698 97.558279 
z
" clip-path="url(#p92b894fef2)" style="fill: #fb8500"/>
   </g>
   <g id="patch_109">
    <path d="M 772.226124 46119.831005 
L 782.91123 46119.831005 
L 782.91123 97.12374 
L 772.226124 97.12374 
z
" clip-path="url(#p92b894fef2)" style="fill: #fb8500"/>
   </g>
   <g id="patch_110">
    <path d="M 814.966549 46119.831005 
L 825.651656 46119.831005 
L 825.651656 109.527846 
L 814.966549 109.527846 
z
" clip-path="url(#p92b894fef2)" style="fill: #fb8500"/>
   </g>
   <g id="patch_111">
    <path d="M 857.706975 46119.831005 
L 868.392081 46119.831005 
L 868.392081 112.5425 
L 857.706975 112.5425 
z
" clip-path="url(#p92b894fef2)" style="fill: #fb8500"/>
   </g>
   <g id="patch_112">
    <path d="M 900.4474 46119.831005 
L 911.132507 46119.831005 
L 911.132507 115.546346 
L 900.4474 115.546346 
z
" clip-path="url(#p92b894fef2)" style="fill: #fb8500"/>
   </g>
   <g id="patch_113">
    <path d="M 943.187826 46119.831005 
L 953.872932 46119.831005 
L 953.872932 103.090029 
L 943.187826 103.090029 
z
" clip-path="url(#p92b894fef2)" style="fill: #fb8500"/>
   </g>
   <g id="patch_114">
    <path d="M 985.928251 46119.831005 
L 996.613358 46119.831005 
L 996.613358 127.8427 
L 985.928251 127.8427 
z
" clip-path="url(#p92b894fef2)" style="fill: #fb8500"/>
   </g>
   <g id="patch_115">
    <path d="M 1028.668677 46119.831005 
L 1039.353783 46119.831005 
L 1039.353783 124.198449 
L 1028.668677 124.198449 
z
" clip-path="url(#p92b894fef2)" style="fill: #fb8500"/>
   </g>
   <g id="patch_116">
    <path d="M 1071.409102 46119.831005 
L 1082.094209 46119.831005 
L 1082.094209 120.415873 
L 1071.409102 120.415873 
z
" clip-path="url(#p92b894fef2)" style="fill: #fb8500"/>
   </g>
   <g id="patch_117">
    <path d="M 1114.149528 46119.831005 
L 1124.834634 46119.831005 
L 1124.834634 113.012828 
L 1114.149528 113.012828 
z
" clip-path="url(#p92b894fef2)" style="fill: #fb8500"/>
   </g>
   <g id="patch_118">
    <path d="M 1156.889953 46119.831005 
L 1167.57506 46119.831005 
L 1167.57506 125.937636 
L 1156.889953 125.937636 
z
" clip-path="url(#p92b894fef2)" style="fill: #fb8500"/>
   </g>
   <g id="patch_119">
    <path d="M 1199.630379 46119.831005 
L 1210.315485 46119.831005 
L 1210.315485 116.657078 
L 1199.630379 116.657078 
z
" clip-path="url(#p92b894fef2)" style="fill: #fb8500"/>
   </g>
   <g id="patch_120">
    <path d="M 1242.370805 46119.831005 
L 1253.055911 46119.831005 
L 1253.055911 46119.831005 
L 1242.370805 46119.831005 
z
" clip-path="url(#p92b894fef2)" style="fill: #fb8500"/>
   </g>
   <g id="patch_121">
    <path d="M 1285.11123 46119.831005 
L 1295.796336 46119.831005 
L 1295.796336 46119.831005 
L 1285.11123 46119.831005 
z
" clip-path="url(#p92b894fef2)" style="fill: #fb8500"/>
   </g>
   <g id="patch_122">
    <path d="M 1327.851656 46119.831005 
L 1338.536762 46119.831005 
L 1338.536762 46119.831005 
L 1327.851656 46119.831005 
z
" clip-path="url(#p92b894fef2)" style="fill: #fb8500"/>
   </g>
   <g id="patch_123">
    <path d="M 1370.592081 46119.831005 
L 1381.277187 46119.831005 
L 1381.277187 46119.831005 
L 1370.592081 46119.831005 
z
" clip-path="url(#p92b894fef2)" style="fill: #fb8500"/>
   </g>
   <g id="patch_124">
    <path d="M 1413.332507 46119.831005 
L 1424.017613 46119.831005 
L 1424.017613 46119.831005 
L 1413.332507 46119.831005 
z
" clip-path="url(#p92b894fef2)" style="fill: #fb8500"/>
   </g>
   <g id="patch_125">
    <path d="M 1456.072932 46119.831005 
L 1466.758039 46119.831005 
L 1466.758039 46119.831005 
L 1456.072932 46119.831005 
z
" clip-path="url(#p92b894fef2)" style="fill: #fb8500"/>
   </g>
   <g id="patch_126">
    <path d="M 1498.813358 46119.831005 
L 1509.498464 46119.831005 
L 1509.498464 105.228192 
L 1498.813358 105.228192 
z
" clip-path="url(#p92b894fef2)" style="fill: #fb8500"/>
   </g>
   <g id="patch_127">
    <path d="M 1541.553783 46119.831005 
L 1552.23889 46119.831005 
L 1552.23889 109.13203 
L 1541.553783 109.13203 
z
" clip-path="url(#p92b894fef2)" style="fill: #fb8500"/>
   </g>
   <g id="patch_128">
    <path d="M 1584.294209 46119.831005 
L 1594.979315 46119.831005 
L 1594.979315 46119.831005 
L 1584.294209 46119.831005 
z
" clip-path="url(#p92b894fef2)" style="fill: #fb8500"/>
   </g>
   <g id="patch_129">
    <path d="M 1627.034634 46119.831005 
L 1637.719741 46119.831005 
L 1637.719741 46119.831005 
L 1627.034634 46119.831005 
z
" clip-path="url(#p92b894fef2)" style="fill: #fb8500"/>
   </g>
   <g id="patch_130">
    <path d="M 1669.77506 46119.831005 
L 1680.460166 46119.831005 
L 1680.460166 46119.831005 
L 1669.77506 46119.831005 
z
" clip-path="url(#p92b894fef2)" style="fill: #fb8500"/>
   </g>
   <g id="patch_131">
    <path d="M 1712.515485 46119.831005 
L 1723.200592 46119.831005 
L 1723.200592 46119.831005 
L 1712.515485 46119.831005 
z
" clip-path="url(#p92b894fef2)" style="fill: #fb8500"/>
   </g>
   <g id="patch_132">
    <path d="M 1755.255911 46119.831005 
L 1765.941017 46119.831005 
L 1765.941017 46119.831005 
L 1755.255911 46119.831005 
z
" clip-path="url(#p92b894fef2)" style="fill: #fb8500"/>
   </g>
   <g id="patch_133">
    <path d="M 1797.996336 46119.831005 
L 1808.681443 46119.831005 
L 1808.681443 46119.831005 
L 1797.996336 46119.831005 
z
" clip-path="url(#p92b894fef2)" style="fill: #fb8500"/>
   </g>
   <g id="patch_134">
    <path d="M 1840.736762 46119.831005 
L 1851.421868 46119.831005 
L 1851.421868 125.937636 
L 1840.736762 125.937636 
z
" clip-path="url(#p92b894fef2)" style="fill: #fb8500"/>
   </g>
   <g id="patch_135">
    <path d="M 1883.477187 46119.831005 
L 1894.162294 46119.831005 
L 1894.162294 46119.831005 
L 1883.477187 46119.831005 
z
" clip-path="url(#p92b894fef2)" style="fill: #fb8500"/>
   </g>
   <g id="patch_136">
    <path d="M 1926.217613 46119.831005 
L 1936.902719 46119.831005 
L 1936.902719 93.407976 
L 1926.217613 93.407976 
z
" clip-path="url(#p92b894fef2)" style="fill: #fb8500"/>
   </g>
   <g id="patch_137">
    <path d="M 1968.958039 46119.831005 
L 1979.643145 46119.831005 
L 1979.643145 106.908848 
L 1968.958039 106.908848 
z
" clip-path="url(#p92b894fef2)" style="fill: #fb8500"/>
   </g>
   <g id="patch_138">
    <path d="M 2011.698464 46119.831005 
L 2022.38357 46119.831005 
L 2022.38357 46119.831005 
L 2011.698464 46119.831005 
z
" clip-path="url(#p92b894fef2)" style="fill: #fb8500"/>
   </g>
   <g id="patch_139">
    <path d="M 2054.43889 46119.831005 
L 2065.123996 46119.831005 
L 2065.123996 46119.831005 
L 2054.43889 46119.831005 
z
" clip-path="url(#p92b894fef2)" style="fill: #fb8500"/>
   </g>
   <g id="patch_140">
    <path d="M 2097.179315 46119.831005 
L 2107.864422 46119.831005 
L 2107.864422 46119.831005 
L 2097.179315 46119.831005 
z
" clip-path="url(#p92b894fef2)" style="fill: #fb8500"/>
   </g>
   <g id="matplotlib.axis_1">
    <g id="xtick_1">
     <g id="line2d_1">
      <defs>
       <path id="m0b30606eaa" d="M 0 0 
L 0 3.5 
" style="stroke: #000000; stroke-width: 0.8"/>
      </defs>
      <g>
       <use xlink:href="#m0b30606eaa" x="168.517613" y="339.84" style="stroke: #000000; stroke-width: 0.8"/>
      </g>
     </g>
     <g id="text_1">
      <!-- en -->
      <g transform="translate(154.153394 364.316406)scale(0.23 -0.23)">
       <defs>
        <path id="DejaVuSans-65" d="M 3597 1894 
L 3597 1613 
L 953 1613 
Q 991 1019 1311 708 
Q 1631 397 2203 397 
Q 2534 397 2845 478 
Q 3156 559 3463 722 
L 3463 178 
Q 3153 47 2828 -22 
Q 2503 -91 2169 -91 
Q 1331 -91 842 396 
Q 353 884 353 1716 
Q 353 2575 817 3079 
Q 1281 3584 2069 3584 
Q 2775 3584 3186 3129 
Q 3597 2675 3597 1894 
z
M 3022 2063 
Q 3016 2534 2758 2815 
Q 2500 3097 2075 3097 
Q 1594 3097 1305 2825 
Q 1016 2553 972 2059 
L 3022 2063 
z
" transform="scale(0.015625)"/>
        <path id="DejaVuSans-6e" d="M 3513 2113 
L 3513 0 
L 2938 0 
L 2938 2094 
Q 2938 2591 2744 2837 
Q 2550 3084 2163 3084 
Q 1697 3084 1428 2787 
Q 1159 2491 1159 1978 
L 1159 0 
L 581 0 
L 581 3500 
L 1159 3500 
L 1159 2956 
Q 1366 3272 1645 3428 
Q 1925 3584 2291 3584 
Q 2894 3584 3203 3211 
Q 3513 2838 3513 2113 
z
" transform="scale(0.015625)"/>
       </defs>
       <use xlink:href="#DejaVuSans-65"/>
       <use xlink:href="#DejaVuSans-6e" x="61.523438"/>
      </g>
     </g>
    </g>
    <g id="xtick_2">
     <g id="line2d_2">
      <g>
       <use xlink:href="#m0b30606eaa" x="211.258039" y="339.84" style="stroke: #000000; stroke-width: 0.8"/>
      </g>
     </g>
     <g id="text_2">
      <!-- es -->
      <g transform="translate(198.191164 364.316406)scale(0.23 -0.23)">
       <defs>
        <path id="DejaVuSans-73" d="M 2834 3397 
L 2834 2853 
Q 2591 2978 2328 3040 
Q 2066 3103 1784 3103 
Q 1356 3103 1142 2972 
Q 928 2841 928 2578 
Q 928 2378 1081 2264 
Q 1234 2150 1697 2047 
L 1894 2003 
Q 2506 1872 2764 1633 
Q 3022 1394 3022 966 
Q 3022 478 2636 193 
Q 2250 -91 1575 -91 
Q 1294 -91 989 -36 
Q 684 19 347 128 
L 347 722 
Q 666 556 975 473 
Q 1284 391 1588 391 
Q 1994 391 2212 530 
Q 2431 669 2431 922 
Q 2431 1156 2273 1281 
Q 2116 1406 1581 1522 
L 1381 1569 
Q 847 1681 609 1914 
Q 372 2147 372 2553 
Q 372 3047 722 3315 
Q 1072 3584 1716 3584 
Q 2034 3584 2315 3537 
Q 2597 3491 2834 3397 
z
" transform="scale(0.015625)"/>
       </defs>
       <use xlink:href="#DejaVuSans-65"/>
       <use xlink:href="#DejaVuSans-73" x="61.523438"/>
      </g>
     </g>
    </g>
    <g id="xtick_3">
     <g id="line2d_3">
      <g>
       <use xlink:href="#m0b30606eaa" x="253.998464" y="339.84" style="stroke: #000000; stroke-width: 0.8"/>
      </g>
     </g>
     <g id="text_3">
      <!-- pt -->
      <g transform="translate(242.189402 364.316406)scale(0.23 -0.23)">
       <defs>
        <path id="DejaVuSans-70" d="M 1159 525 
L 1159 -1331 
L 581 -1331 
L 581 3500 
L 1159 3500 
L 1159 2969 
Q 1341 3281 1617 3432 
Q 1894 3584 2278 3584 
Q 2916 3584 3314 3078 
Q 3713 2572 3713 1747 
Q 3713 922 3314 415 
Q 2916 -91 2278 -91 
Q 1894 -91 1617 61 
Q 1341 213 1159 525 
z
M 3116 1747 
Q 3116 2381 2855 2742 
Q 2594 3103 2138 3103 
Q 1681 3103 1420 2742 
Q 1159 2381 1159 1747 
Q 1159 1113 1420 752 
Q 1681 391 2138 391 
Q 2594 391 2855 752 
Q 3116 1113 3116 1747 
z
" transform="scale(0.015625)"/>
        <path id="DejaVuSans-74" d="M 1172 4494 
L 1172 3500 
L 2356 3500 
L 2356 3053 
L 1172 3053 
L 1172 1153 
Q 1172 725 1289 603 
Q 1406 481 1766 481 
L 2356 481 
L 2356 0 
L 1766 0 
Q 1100 0 847 248 
Q 594 497 594 1153 
L 594 3053 
L 172 3053 
L 172 3500 
L 594 3500 
L 594 4494 
L 1172 4494 
z
" transform="scale(0.015625)"/>
       </defs>
       <use xlink:href="#DejaVuSans-70"/>
       <use xlink:href="#DejaVuSans-74" x="63.476562"/>
      </g>
     </g>
    </g>
    <g id="xtick_4">
     <g id="line2d_4">
      <g>
       <use xlink:href="#m0b30606eaa" x="296.73889" y="339.84" style="stroke: #000000; stroke-width: 0.8"/>
      </g>
     </g>
     <g id="text_4">
      <!-- fr -->
      <g transform="translate(287.962952 364.316406)scale(0.23 -0.23)">
       <defs>
        <path id="DejaVuSans-66" d="M 2375 4863 
L 2375 4384 
L 1825 4384 
Q 1516 4384 1395 4259 
Q 1275 4134 1275 3809 
L 1275 3500 
L 2222 3500 
L 2222 3053 
L 1275 3053 
L 1275 0 
L 697 0 
L 697 3053 
L 147 3053 
L 147 3500 
L 697 3500 
L 697 3744 
Q 697 4328 969 4595 
Q 1241 4863 1831 4863 
L 2375 4863 
z
" transform="scale(0.015625)"/>
        <path id="DejaVuSans-72" d="M 2631 2963 
Q 2534 3019 2420 3045 
Q 2306 3072 2169 3072 
Q 1681 3072 1420 2755 
Q 1159 2438 1159 1844 
L 1159 0 
L 581 0 
L 581 3500 
L 1159 3500 
L 1159 2956 
Q 1341 3275 1631 3429 
Q 1922 3584 2338 3584 
Q 2397 3584 2469 3576 
Q 2541 3569 2628 3553 
L 2631 2963 
z
" transform="scale(0.015625)"/>
       </defs>
       <use xlink:href="#DejaVuSans-66"/>
       <use xlink:href="#DejaVuSans-72" x="35.205078"/>
      </g>
     </g>
    </g>
    <g id="xtick_5">
     <g id="line2d_5">
      <g>
       <use xlink:href="#m0b30606eaa" x="339.479315" y="339.84" style="stroke: #000000; stroke-width: 0.8"/>
      </g>
     </g>
     <g id="text_5">
      <!-- ar -->
      <g transform="translate(327.704393 364.316406)scale(0.23 -0.23)">
       <defs>
        <path id="DejaVuSans-61" d="M 2194 1759 
Q 1497 1759 1228 1600 
Q 959 1441 959 1056 
Q 959 750 1161 570 
Q 1363 391 1709 391 
Q 2188 391 2477 730 
Q 2766 1069 2766 1631 
L 2766 1759 
L 2194 1759 
z
M 3341 1997 
L 3341 0 
L 2766 0 
L 2766 531 
Q 2569 213 2275 61 
Q 1981 -91 1556 -91 
Q 1019 -91 701 211 
Q 384 513 384 1019 
Q 384 1609 779 1909 
Q 1175 2209 1959 2209 
L 2766 2209 
L 2766 2266 
Q 2766 2663 2505 2880 
Q 2244 3097 1772 3097 
Q 1472 3097 1187 3025 
Q 903 2953 641 2809 
L 641 3341 
Q 956 3463 1253 3523 
Q 1550 3584 1831 3584 
Q 2591 3584 2966 3190 
Q 3341 2797 3341 1997 
z
" transform="scale(0.015625)"/>
       </defs>
       <use xlink:href="#DejaVuSans-61"/>
       <use xlink:href="#DejaVuSans-72" x="61.279297"/>
      </g>
     </g>
    </g>
    <g id="xtick_6">
     <g id="line2d_6">
      <g>
       <use xlink:href="#m0b30606eaa" x="382.219741" y="339.84" style="stroke: #000000; stroke-width: 0.8"/>
      </g>
     </g>
     <g id="text_6">
      <!-- id -->
      <g transform="translate(371.724194 364.316406)scale(0.23 -0.23)">
       <defs>
        <path id="DejaVuSans-69" d="M 603 3500 
L 1178 3500 
L 1178 0 
L 603 0 
L 603 3500 
z
M 603 4863 
L 1178 4863 
L 1178 4134 
L 603 4134 
L 603 4863 
z
" transform="scale(0.015625)"/>
        <path id="DejaVuSans-64" d="M 2906 2969 
L 2906 4863 
L 3481 4863 
L 3481 0 
L 2906 0 
L 2906 525 
Q 2725 213 2448 61 
Q 2172 -91 1784 -91 
Q 1150 -91 751 415 
Q 353 922 353 1747 
Q 353 2572 751 3078 
Q 1150 3584 1784 3584 
Q 2172 3584 2448 3432 
Q 2725 3281 2906 2969 
z
M 947 1747 
Q 947 1113 1208 752 
Q 1469 391 1925 391 
Q 2381 391 2643 752 
Q 2906 1113 2906 1747 
Q 2906 2381 2643 2742 
Q 2381 3103 1925 3103 
Q 1469 3103 1208 2742 
Q 947 2381 947 1747 
z
" transform="scale(0.015625)"/>
       </defs>
       <use xlink:href="#DejaVuSans-69"/>
       <use xlink:href="#DejaVuSans-64" x="27.783203"/>
      </g>
     </g>
    </g>
    <g id="xtick_7">
     <g id="line2d_7">
      <g>
       <use xlink:href="#m0b30606eaa" x="424.960166" y="339.84" style="stroke: #000000; stroke-width: 0.8"/>
      </g>
     </g>
     <g id="text_7">
      <!-- zh -->
      <g transform="translate(411.636338 364.316406)scale(0.23 -0.23)">
       <defs>
        <path id="DejaVuSans-7a" d="M 353 3500 
L 3084 3500 
L 3084 2975 
L 922 459 
L 3084 459 
L 3084 0 
L 275 0 
L 275 525 
L 2438 3041 
L 353 3041 
L 353 3500 
z
" transform="scale(0.015625)"/>
        <path id="DejaVuSans-68" d="M 3513 2113 
L 3513 0 
L 2938 0 
L 2938 2094 
Q 2938 2591 2744 2837 
Q 2550 3084 2163 3084 
Q 1697 3084 1428 2787 
Q 1159 2491 1159 1978 
L 1159 0 
L 581 0 
L 581 4863 
L 1159 4863 
L 1159 2956 
Q 1366 3272 1645 3428 
Q 1925 3584 2291 3584 
Q 2894 3584 3203 3211 
Q 3513 2838 3513 2113 
z
" transform="scale(0.015625)"/>
       </defs>
       <use xlink:href="#DejaVuSans-7a"/>
       <use xlink:href="#DejaVuSans-68" x="52.490234"/>
      </g>
     </g>
    </g>
    <g id="xtick_8">
     <g id="line2d_8">
      <g>
       <use xlink:href="#m0b30606eaa" x="467.700592" y="339.84" style="stroke: #000000; stroke-width: 0.8"/>
      </g>
     </g>
     <g id="text_8">
      <!-- hi -->
      <g transform="translate(457.217623 364.316406)scale(0.23 -0.23)">
       <use xlink:href="#DejaVuSans-68"/>
       <use xlink:href="#DejaVuSans-69" x="63.378906"/>
      </g>
     </g>
    </g>
    <g id="xtick_9">
     <g id="line2d_9">
      <g>
       <use xlink:href="#m0b30606eaa" x="510.441017" y="339.84" style="stroke: #000000; stroke-width: 0.8"/>
      </g>
     </g>
     <g id="text_9">
      <!-- code -->
      <g transform="translate(482.704455 364.316406)scale(0.23 -0.23)">
       <defs>
        <path id="DejaVuSans-63" d="M 3122 3366 
L 3122 2828 
Q 2878 2963 2633 3030 
Q 2388 3097 2138 3097 
Q 1578 3097 1268 2742 
Q 959 2388 959 1747 
Q 959 1106 1268 751 
Q 1578 397 2138 397 
Q 2388 397 2633 464 
Q 2878 531 3122 666 
L 3122 134 
Q 2881 22 2623 -34 
Q 2366 -91 2075 -91 
Q 1284 -91 818 406 
Q 353 903 353 1747 
Q 353 2603 823 3093 
Q 1294 3584 2113 3584 
Q 2378 3584 2631 3529 
Q 2884 3475 3122 3366 
z
" transform="scale(0.015625)"/>
        <path id="DejaVuSans-6f" d="M 1959 3097 
Q 1497 3097 1228 2736 
Q 959 2375 959 1747 
Q 959 1119 1226 758 
Q 1494 397 1959 397 
Q 2419 397 2687 759 
Q 2956 1122 2956 1747 
Q 2956 2369 2687 2733 
Q 2419 3097 1959 3097 
z
M 1959 3584 
Q 2709 3584 3137 3096 
Q 3566 2609 3566 1747 
Q 3566 888 3137 398 
Q 2709 -91 1959 -91 
Q 1206 -91 779 398 
Q 353 888 353 1747 
Q 353 2609 779 3096 
Q 1206 3584 1959 3584 
z
" transform="scale(0.015625)"/>
       </defs>
       <use xlink:href="#DejaVuSans-63"/>
       <use xlink:href="#DejaVuSans-6f" x="54.980469"/>
       <use xlink:href="#DejaVuSans-64" x="116.162109"/>
       <use xlink:href="#DejaVuSans-65" x="179.638672"/>
      </g>
     </g>
    </g>
    <g id="xtick_10">
     <g id="line2d_10">
      <g>
       <use xlink:href="#m0b30606eaa" x="553.181443" y="339.84" style="stroke: #000000; stroke-width: 0.8"/>
      </g>
     </g>
     <g id="text_10">
      <!-- vi -->
      <g transform="translate(543.180037 364.316406)scale(0.23 -0.23)">
       <defs>
        <path id="DejaVuSans-76" d="M 191 3500 
L 800 3500 
L 1894 563 
L 2988 3500 
L 3597 3500 
L 2284 0 
L 1503 0 
L 191 3500 
z
" transform="scale(0.015625)"/>
       </defs>
       <use xlink:href="#DejaVuSans-76"/>
       <use xlink:href="#DejaVuSans-69" x="59.179688"/>
      </g>
     </g>
    </g>
    <g id="xtick_11">
     <g id="line2d_11">
      <g>
       <use xlink:href="#m0b30606eaa" x="595.921868" y="339.84" style="stroke: #000000; stroke-width: 0.8"/>
      </g>
     </g>
     <g id="text_11">
      <!-- ur -->
      <g transform="translate(583.906165 364.316406)scale(0.23 -0.23)">
       <defs>
        <path id="DejaVuSans-75" d="M 544 1381 
L 544 3500 
L 1119 3500 
L 1119 1403 
Q 1119 906 1312 657 
Q 1506 409 1894 409 
Q 2359 409 2629 706 
Q 2900 1003 2900 1516 
L 2900 3500 
L 3475 3500 
L 3475 0 
L 2900 0 
L 2900 538 
Q 2691 219 2414 64 
Q 2138 -91 1772 -91 
Q 1169 -91 856 284 
Q 544 659 544 1381 
z
M 1991 3584 
L 1991 3584 
z
" transform="scale(0.015625)"/>
       </defs>
       <use xlink:href="#DejaVuSans-75"/>
       <use xlink:href="#DejaVuSans-72" x="63.378906"/>
      </g>
     </g>
    </g>
    <g id="xtick_12">
     <g id="line2d_12">
      <g>
       <use xlink:href="#m0b30606eaa" x="638.662294" y="339.84" style="stroke: #000000; stroke-width: 0.8"/>
      </g>
     </g>
     <g id="text_12">
      <!-- te -->
      <g transform="translate(627.077841 364.316406)scale(0.23 -0.23)">
       <use xlink:href="#DejaVuSans-74"/>
       <use xlink:href="#DejaVuSans-65" x="39.208984"/>
      </g>
     </g>
    </g>
    <g id="xtick_13">
     <g id="line2d_13">
      <g>
       <use xlink:href="#m0b30606eaa" x="681.402719" y="339.84" style="stroke: #000000; stroke-width: 0.8"/>
      </g>
     </g>
     <g id="text_13">
      <!-- ta -->
      <g transform="translate(669.847016 364.316406)scale(0.23 -0.23)">
       <use xlink:href="#DejaVuSans-74"/>
       <use xlink:href="#DejaVuSans-61" x="39.208984"/>
      </g>
     </g>
    </g>
    <g id="xtick_14">
     <g id="line2d_14">
      <g>
       <use xlink:href="#m0b30606eaa" x="724.143145" y="339.84" style="stroke: #000000; stroke-width: 0.8"/>
      </g>
     </g>
     <g id="text_14">
      <!-- bn -->
      <g transform="translate(709.554317 364.316406)scale(0.23 -0.23)">
       <defs>
        <path id="DejaVuSans-62" d="M 3116 1747 
Q 3116 2381 2855 2742 
Q 2594 3103 2138 3103 
Q 1681 3103 1420 2742 
Q 1159 2381 1159 1747 
Q 1159 1113 1420 752 
Q 1681 391 2138 391 
Q 2594 391 2855 752 
Q 3116 1113 3116 1747 
z
M 1159 2969 
Q 1341 3281 1617 3432 
Q 1894 3584 2278 3584 
Q 2916 3584 3314 3078 
Q 3713 2572 3713 1747 
Q 3713 922 3314 415 
Q 2916 -91 2278 -91 
Q 1894 -91 1617 61 
Q 1341 213 1159 525 
L 1159 0 
L 581 0 
L 581 4863 
L 1159 4863 
L 1159 2969 
z
" transform="scale(0.015625)"/>
       </defs>
       <use xlink:href="#DejaVuSans-62"/>
       <use xlink:href="#DejaVuSans-6e" x="63.476562"/>
      </g>
     </g>
    </g>
    <g id="xtick_15">
     <g id="line2d_15">
      <g>
       <use xlink:href="#m0b30606eaa" x="766.88357" y="339.84" style="stroke: #000000; stroke-width: 0.8"/>
      </g>
     </g>
     <g id="text_15">
      <!-- mr -->
      <g transform="translate(750.954274 364.316406)scale(0.23 -0.23)">
       <defs>
        <path id="DejaVuSans-6d" d="M 3328 2828 
Q 3544 3216 3844 3400 
Q 4144 3584 4550 3584 
Q 5097 3584 5394 3201 
Q 5691 2819 5691 2113 
L 5691 0 
L 5113 0 
L 5113 2094 
Q 5113 2597 4934 2840 
Q 4756 3084 4391 3084 
Q 3944 3084 3684 2787 
Q 3425 2491 3425 1978 
L 3425 0 
L 2847 0 
L 2847 2094 
Q 2847 2600 2669 2842 
Q 2491 3084 2119 3084 
Q 1678 3084 1418 2786 
Q 1159 2488 1159 1978 
L 1159 0 
L 581 0 
L 581 3500 
L 1159 3500 
L 1159 2956 
Q 1356 3278 1631 3431 
Q 1906 3584 2284 3584 
Q 2666 3584 2933 3390 
Q 3200 3197 3328 2828 
z
" transform="scale(0.015625)"/>
       </defs>
       <use xlink:href="#DejaVuSans-6d"/>
       <use xlink:href="#DejaVuSans-72" x="97.412109"/>
      </g>
     </g>
    </g>
    <g id="xtick_16">
     <g id="line2d_16">
      <g>
       <use xlink:href="#m0b30606eaa" x="809.623996" y="339.84" style="stroke: #000000; stroke-width: 0.8"/>
      </g>
     </g>
     <g id="text_16">
      <!-- sw -->
      <g transform="translate(794.228371 364.316406)scale(0.23 -0.23)">
       <defs>
        <path id="DejaVuSans-77" d="M 269 3500 
L 844 3500 
L 1563 769 
L 2278 3500 
L 2956 3500 
L 3675 769 
L 4391 3500 
L 4966 3500 
L 4050 0 
L 3372 0 
L 2619 2869 
L 1863 0 
L 1184 0 
L 269 3500 
z
" transform="scale(0.015625)"/>
       </defs>
       <use xlink:href="#DejaVuSans-73"/>
       <use xlink:href="#DejaVuSans-77" x="52.099609"/>
      </g>
     </g>
    </g>
    <g id="xtick_17">
     <g id="line2d_17">
      <g>
       <use xlink:href="#m0b30606eaa" x="852.364422" y="339.84" style="stroke: #000000; stroke-width: 0.8"/>
      </g>
     </g>
     <g id="text_17">
      <!-- gu -->
      <g transform="translate(837.775593 364.316406)scale(0.23 -0.23)">
       <defs>
        <path id="DejaVuSans-67" d="M 2906 1791 
Q 2906 2416 2648 2759 
Q 2391 3103 1925 3103 
Q 1463 3103 1205 2759 
Q 947 2416 947 1791 
Q 947 1169 1205 825 
Q 1463 481 1925 481 
Q 2391 481 2648 825 
Q 2906 1169 2906 1791 
z
M 3481 434 
Q 3481 -459 3084 -895 
Q 2688 -1331 1869 -1331 
Q 1566 -1331 1297 -1286 
Q 1028 -1241 775 -1147 
L 775 -588 
Q 1028 -725 1275 -790 
Q 1522 -856 1778 -856 
Q 2344 -856 2625 -561 
Q 2906 -266 2906 331 
L 2906 616 
Q 2728 306 2450 153 
Q 2172 0 1784 0 
Q 1141 0 747 490 
Q 353 981 353 1791 
Q 353 2603 747 3093 
Q 1141 3584 1784 3584 
Q 2172 3584 2450 3431 
Q 2728 3278 2906 2969 
L 2906 3500 
L 3481 3500 
L 3481 434 
z
" transform="scale(0.015625)"/>
       </defs>
       <use xlink:href="#DejaVuSans-67"/>
       <use xlink:href="#DejaVuSans-75" x="63.476562"/>
      </g>
     </g>
    </g>
    <g id="xtick_18">
     <g id="line2d_18">
      <g>
       <use xlink:href="#m0b30606eaa" x="895.104847" y="339.84" style="stroke: #000000; stroke-width: 0.8"/>
      </g>
     </g>
     <g id="text_18">
      <!-- pa -->
      <g transform="translate(880.7568 364.316406)scale(0.23 -0.23)">
       <use xlink:href="#DejaVuSans-70"/>
       <use xlink:href="#DejaVuSans-61" x="63.476562"/>
      </g>
     </g>
    </g>
    <g id="xtick_19">
     <g id="line2d_19">
      <g>
       <use xlink:href="#m0b30606eaa" x="937.845273" y="339.84" style="stroke: #000000; stroke-width: 0.8"/>
      </g>
     </g>
     <g id="text_19">
      <!-- ne -->
      <g transform="translate(923.481054 364.316406)scale(0.23 -0.23)">
       <use xlink:href="#DejaVuSans-6e"/>
       <use xlink:href="#DejaVuSans-65" x="63.378906"/>
      </g>
     </g>
    </g>
    <g id="xtick_20">
     <g id="line2d_20">
      <g>
       <use xlink:href="#m0b30606eaa" x="980.585698" y="339.84" style="stroke: #000000; stroke-width: 0.8"/>
      </g>
     </g>
     <g id="text_20">
      <!-- yo -->
      <g transform="translate(966.742573 364.316406)scale(0.23 -0.23)">
       <defs>
        <path id="DejaVuSans-79" d="M 2059 -325 
Q 1816 -950 1584 -1140 
Q 1353 -1331 966 -1331 
L 506 -1331 
L 506 -850 
L 844 -850 
Q 1081 -850 1212 -737 
Q 1344 -625 1503 -206 
L 1606 56 
L 191 3500 
L 800 3500 
L 1894 763 
L 2988 3500 
L 3597 3500 
L 2059 -325 
z
" transform="scale(0.015625)"/>
       </defs>
       <use xlink:href="#DejaVuSans-79"/>
       <use xlink:href="#DejaVuSans-6f" x="59.179688"/>
      </g>
     </g>
    </g>
    <g id="xtick_21">
     <g id="line2d_21">
      <g>
       <use xlink:href="#m0b30606eaa" x="1023.326124" y="339.84" style="stroke: #000000; stroke-width: 0.8"/>
      </g>
     </g>
     <g id="text_21">
      <!-- ig -->
      <g transform="translate(1012.830577 364.316406)scale(0.23 -0.23)">
       <use xlink:href="#DejaVuSans-69"/>
       <use xlink:href="#DejaVuSans-67" x="27.783203"/>
      </g>
     </g>
    </g>
    <g id="xtick_22">
     <g id="line2d_22">
      <g>
       <use xlink:href="#m0b30606eaa" x="1066.066549" y="339.84" style="stroke: #000000; stroke-width: 0.8"/>
      </g>
     </g>
     <g id="text_22">
      <!-- ny -->
      <g transform="translate(1051.971862 364.316406)scale(0.23 -0.23)">
       <use xlink:href="#DejaVuSans-6e"/>
       <use xlink:href="#DejaVuSans-79" x="63.378906"/>
      </g>
     </g>
    </g>
    <g id="xtick_23">
     <g id="line2d_23">
      <g>
       <use xlink:href="#m0b30606eaa" x="1108.806975" y="339.84" style="stroke: #000000; stroke-width: 0.8"/>
      </g>
     </g>
     <g id="text_23">
      <!-- zu -->
      <g transform="translate(1095.483147 364.316406)scale(0.23 -0.23)">
       <use xlink:href="#DejaVuSans-7a"/>
       <use xlink:href="#DejaVuSans-75" x="52.490234"/>
      </g>
     </g>
    </g>
    <g id="xtick_24">
     <g id="line2d_24">
      <g>
       <use xlink:href="#m0b30606eaa" x="1151.5474" y="339.84" style="stroke: #000000; stroke-width: 0.8"/>
      </g>
     </g>
     <g id="text_24">
      <!-- xh -->
      <g transform="translate(1137.452713 364.316406)scale(0.23 -0.23)">
       <defs>
        <path id="DejaVuSans-78" d="M 3513 3500 
L 2247 1797 
L 3578 0 
L 2900 0 
L 1881 1375 
L 863 0 
L 184 0 
L 1544 1831 
L 300 3500 
L 978 3500 
L 1906 2253 
L 2834 3500 
L 3513 3500 
z
" transform="scale(0.015625)"/>
       </defs>
       <use xlink:href="#DejaVuSans-78"/>
       <use xlink:href="#DejaVuSans-68" x="59.179688"/>
      </g>
     </g>
    </g>
    <g id="xtick_25">
     <g id="line2d_25">
      <g>
       <use xlink:href="#m0b30606eaa" x="1194.287826" y="339.84" style="stroke: #000000; stroke-width: 0.8"/>
      </g>
     </g>
     <g id="text_25">
      <!-- sn -->
      <g transform="translate(1181.00892 364.316406)scale(0.23 -0.23)">
       <use xlink:href="#DejaVuSans-73"/>
       <use xlink:href="#DejaVuSans-6e" x="52.099609"/>
      </g>
     </g>
    </g>
    <g id="xtick_26">
     <g id="line2d_26">
      <g>
       <use xlink:href="#m0b30606eaa" x="1237.028251" y="339.84" style="stroke: #000000; stroke-width: 0.8"/>
      </g>
     </g>
     <g id="text_26">
      <!-- ts -->
      <g transform="translate(1226.529111 364.316406)scale(0.23 -0.23)">
       <use xlink:href="#DejaVuSans-74"/>
       <use xlink:href="#DejaVuSans-73" x="39.208984"/>
      </g>
     </g>
    </g>
    <g id="xtick_27">
     <g id="line2d_27">
      <g>
       <use xlink:href="#m0b30606eaa" x="1279.768677" y="339.84" style="stroke: #000000; stroke-width: 0.8"/>
      </g>
     </g>
     <g id="text_27">
      <!-- rw -->
      <g transform="translate(1265.636255 364.316406)scale(0.23 -0.23)">
       <use xlink:href="#DejaVuSans-72"/>
       <use xlink:href="#DejaVuSans-77" x="41.113281"/>
      </g>
     </g>
    </g>
    <g id="xtick_28">
     <g id="line2d_28">
      <g>
       <use xlink:href="#m0b30606eaa" x="1322.509102" y="339.84" style="stroke: #000000; stroke-width: 0.8"/>
      </g>
     </g>
     <g id="text_28">
      <!-- lg -->
      <g transform="translate(1312.013556 364.316406)scale(0.23 -0.23)">
       <defs>
        <path id="DejaVuSans-6c" d="M 603 4863 
L 1178 4863 
L 1178 0 
L 603 0 
L 603 4863 
z
" transform="scale(0.015625)"/>
       </defs>
       <use xlink:href="#DejaVuSans-6c"/>
       <use xlink:href="#DejaVuSans-67" x="27.783203"/>
      </g>
     </g>
    </g>
    <g id="xtick_29">
     <g id="line2d_29">
      <g>
       <use xlink:href="#m0b30606eaa" x="1365.249528" y="339.84" style="stroke: #000000; stroke-width: 0.8"/>
      </g>
     </g>
     <g id="text_29">
      <!-- tn -->
      <g transform="translate(1353.453044 364.316406)scale(0.23 -0.23)">
       <use xlink:href="#DejaVuSans-74"/>
       <use xlink:href="#DejaVuSans-6e" x="39.208984"/>
      </g>
     </g>
    </g>
    <g id="xtick_30">
     <g id="line2d_30">
      <g>
       <use xlink:href="#m0b30606eaa" x="1407.989953" y="339.84" style="stroke: #000000; stroke-width: 0.8"/>
      </g>
     </g>
     <g id="text_30">
      <!-- nso -->
      <g transform="translate(1387.674485 364.316406)scale(0.23 -0.23)">
       <use xlink:href="#DejaVuSans-6e"/>
       <use xlink:href="#DejaVuSans-73" x="63.378906"/>
       <use xlink:href="#DejaVuSans-6f" x="115.478516"/>
      </g>
     </g>
    </g>
    <g id="xtick_31">
     <g id="line2d_31">
      <g>
       <use xlink:href="#m0b30606eaa" x="1450.730379" y="339.84" style="stroke: #000000; stroke-width: 0.8"/>
      </g>
     </g>
     <g id="text_31">
      <!-- rn -->
      <g transform="translate(1438.915926 364.316406)scale(0.23 -0.23)">
       <use xlink:href="#DejaVuSans-72"/>
       <use xlink:href="#DejaVuSans-6e" x="39.363281"/>
      </g>
     </g>
    </g>
    <g id="xtick_32">
     <g id="line2d_32">
      <g>
       <use xlink:href="#m0b30606eaa" x="1493.470805" y="339.84" style="stroke: #000000; stroke-width: 0.8"/>
      </g>
     </g>
     <g id="text_32">
      <!-- ml -->
      <g transform="translate(1479.074242 364.316406)scale(0.23 -0.23)">
       <use xlink:href="#DejaVuSans-6d"/>
       <use xlink:href="#DejaVuSans-6c" x="97.412109"/>
      </g>
     </g>
    </g>
    <g id="xtick_33">
     <g id="line2d_33">
      <g>
       <use xlink:href="#m0b30606eaa" x="1536.21123" y="339.84" style="stroke: #000000; stroke-width: 0.8"/>
      </g>
     </g>
     <g id="text_33">
      <!-- kn -->
      <g transform="translate(1522.263886 364.316406)scale(0.23 -0.23)">
       <defs>
        <path id="DejaVuSans-6b" d="M 581 4863 
L 1159 4863 
L 1159 1991 
L 2875 3500 
L 3609 3500 
L 1753 1863 
L 3688 0 
L 2938 0 
L 1159 1709 
L 1159 0 
L 581 0 
L 581 4863 
z
" transform="scale(0.015625)"/>
       </defs>
       <use xlink:href="#DejaVuSans-6b"/>
       <use xlink:href="#DejaVuSans-6e" x="57.910156"/>
      </g>
     </g>
    </g>
    <g id="xtick_34">
     <g id="line2d_34">
      <g>
       <use xlink:href="#m0b30606eaa" x="1578.951656" y="339.84" style="stroke: #000000; stroke-width: 0.8"/>
      </g>
     </g>
     <g id="text_34">
      <!-- or -->
      <g transform="translate(1567.187515 364.316406)scale(0.23 -0.23)">
       <use xlink:href="#DejaVuSans-6f"/>
       <use xlink:href="#DejaVuSans-72" x="61.181641"/>
      </g>
     </g>
    </g>
    <g id="xtick_35">
     <g id="line2d_35">
      <g>
       <use xlink:href="#m0b30606eaa" x="1621.692081" y="339.84" style="stroke: #000000; stroke-width: 0.8"/>
      </g>
     </g>
     <g id="text_35">
      <!-- as -->
      <g transform="translate(1608.653956 364.316406)scale(0.23 -0.23)">
       <use xlink:href="#DejaVuSans-61"/>
       <use xlink:href="#DejaVuSans-73" x="61.279297"/>
      </g>
     </g>
    </g>
    <g id="xtick_36">
     <g id="line2d_36">
      <g>
       <use xlink:href="#m0b30606eaa" x="1664.432507" y="339.84" style="stroke: #000000; stroke-width: 0.8"/>
      </g>
     </g>
     <g id="text_36">
      <!-- ln -->
      <g transform="translate(1653.949538 364.316406)scale(0.23 -0.23)">
       <use xlink:href="#DejaVuSans-6c"/>
       <use xlink:href="#DejaVuSans-6e" x="27.783203"/>
      </g>
     </g>
    </g>
    <g id="xtick_37">
     <g id="line2d_37">
      <g>
       <use xlink:href="#m0b30606eaa" x="1707.172932" y="339.84" style="stroke: #000000; stroke-width: 0.8"/>
      </g>
     </g>
     <g id="text_37">
      <!-- wo -->
      <g transform="translate(1690.731526 364.316406)scale(0.23 -0.23)">
       <use xlink:href="#DejaVuSans-77"/>
       <use xlink:href="#DejaVuSans-6f" x="81.787109"/>
      </g>
     </g>
    </g>
    <g id="xtick_38">
     <g id="line2d_38">
      <g>
       <use xlink:href="#m0b30606eaa" x="1749.913358" y="339.84" style="stroke: #000000; stroke-width: 0.8"/>
      </g>
     </g>
     <g id="text_38">
      <!-- tum -->
      <g transform="translate(1726.915155 364.316406)scale(0.23 -0.23)">
       <use xlink:href="#DejaVuSans-74"/>
       <use xlink:href="#DejaVuSans-75" x="39.208984"/>
       <use xlink:href="#DejaVuSans-6d" x="102.587891"/>
      </g>
     </g>
    </g>
    <g id="xtick_39">
     <g id="line2d_39">
      <g>
       <use xlink:href="#m0b30606eaa" x="1792.653783" y="339.84" style="stroke: #000000; stroke-width: 0.8"/>
      </g>
     </g>
     <g id="text_39">
      <!-- ki -->
      <g transform="translate(1782.799721 364.316406)scale(0.23 -0.23)">
       <use xlink:href="#DejaVuSans-6b"/>
       <use xlink:href="#DejaVuSans-69" x="57.910156"/>
      </g>
     </g>
    </g>
    <g id="xtick_40">
     <g id="line2d_40">
      <g>
       <use xlink:href="#m0b30606eaa" x="1835.394209" y="339.84" style="stroke: #000000; stroke-width: 0.8"/>
      </g>
     </g>
     <g id="text_40">
      <!-- st -->
      <g transform="translate(1824.895068 364.316406)scale(0.23 -0.23)">
       <use xlink:href="#DejaVuSans-73"/>
       <use xlink:href="#DejaVuSans-74" x="52.099609"/>
      </g>
     </g>
    </g>
    <g id="xtick_41">
     <g id="line2d_41">
      <g>
       <use xlink:href="#m0b30606eaa" x="1878.134634" y="339.84" style="stroke: #000000; stroke-width: 0.8"/>
      </g>
     </g>
     <g id="text_41">
      <!-- fon -->
      <g transform="translate(1859.761587 364.316406)scale(0.23 -0.23)">
       <use xlink:href="#DejaVuSans-66"/>
       <use xlink:href="#DejaVuSans-6f" x="35.205078"/>
       <use xlink:href="#DejaVuSans-6e" x="96.386719"/>
      </g>
     </g>
    </g>
    <g id="xtick_42">
     <g id="line2d_42">
      <g>
       <use xlink:href="#m0b30606eaa" x="1920.87506" y="339.84" style="stroke: #000000; stroke-width: 0.8"/>
      </g>
     </g>
     <g id="text_42">
      <!-- ca -->
      <g transform="translate(1907.504513 364.316406)scale(0.23 -0.23)">
       <use xlink:href="#DejaVuSans-63"/>
       <use xlink:href="#DejaVuSans-61" x="54.980469"/>
      </g>
     </g>
    </g>
    <g id="xtick_43">
     <g id="line2d_43">
      <g>
       <use xlink:href="#m0b30606eaa" x="1963.615485" y="339.84" style="stroke: #000000; stroke-width: 0.8"/>
      </g>
     </g>
     <g id="text_43">
      <!-- eu -->
      <g transform="translate(1949.251267 364.316406)scale(0.23 -0.23)">
       <use xlink:href="#DejaVuSans-65"/>
       <use xlink:href="#DejaVuSans-75" x="61.523438"/>
      </g>
     </g>
    </g>
    <g id="xtick_44">
     <g id="line2d_44">
      <g>
       <use xlink:href="#m0b30606eaa" x="2006.355911" y="339.84" style="stroke: #000000; stroke-width: 0.8"/>
      </g>
     </g>
     <g id="text_44">
      <!-- ak -->
      <g transform="translate(1992.649348 364.316406)scale(0.23 -0.23)">
       <use xlink:href="#DejaVuSans-61"/>
       <use xlink:href="#DejaVuSans-6b" x="61.279297"/>
      </g>
     </g>
    </g>
    <g id="xtick_45">
     <g id="line2d_45">
      <g>
       <use xlink:href="#m0b30606eaa" x="2049.096336" y="339.84" style="stroke: #000000; stroke-width: 0.8"/>
      </g>
     </g>
     <g id="text_45">
      <!-- bm -->
      <g transform="translate(2030.593915 364.316406)scale(0.23 -0.23)">
       <use xlink:href="#DejaVuSans-62"/>
       <use xlink:href="#DejaVuSans-6d" x="63.476562"/>
      </g>
     </g>
    </g>
    <g id="xtick_46">
     <g id="line2d_46">
      <g>
       <use xlink:href="#m0b30606eaa" x="2091.836762" y="339.84" style="stroke: #000000; stroke-width: 0.8"/>
      </g>
     </g>
     <g id="text_46">
      <!-- tw -->
      <g transform="translate(2077.923559 364.316406)scale(0.23 -0.23)">
       <use xlink:href="#DejaVuSans-74"/>
       <use xlink:href="#DejaVuSans-77" x="39.208984"/>
      </g>
     </g>
    </g>
   </g>
   <g id="matplotlib.axis_2">
    <g id="ytick_1">
     <g id="line2d_47">
      <defs>
       <path id="m19fe4b0041" d="M 0 0 
L -3.5 0 
" style="stroke: #000000; stroke-width: 0.8"/>
      </defs>
      <g>
       <use xlink:href="#m19fe4b0041" x="125.777187" y="31.334182" style="stroke: #000000; stroke-width: 0.8"/>
      </g>
     </g>
     <g id="text_47">
      <!-- 25 -->
      <g transform="translate(89.509687 40.072385)scale(0.23 -0.23)">
       <defs>
        <path id="DejaVuSans-32" d="M 1228 531 
L 3431 531 
L 3431 0 
L 469 0 
L 469 531 
Q 828 903 1448 1529 
Q 2069 2156 2228 2338 
Q 2531 2678 2651 2914 
Q 2772 3150 2772 3378 
Q 2772 3750 2511 3984 
Q 2250 4219 1831 4219 
Q 1534 4219 1204 4116 
Q 875 4013 500 3803 
L 500 4441 
Q 881 4594 1212 4672 
Q 1544 4750 1819 4750 
Q 2544 4750 2975 4387 
Q 3406 4025 3406 3419 
Q 3406 3131 3298 2873 
Q 3191 2616 2906 2266 
Q 2828 2175 2409 1742 
Q 1991 1309 1228 531 
z
" transform="scale(0.015625)"/>
        <path id="DejaVuSans-35" d="M 691 4666 
L 3169 4666 
L 3169 4134 
L 1269 4134 
L 1269 2991 
Q 1406 3038 1543 3061 
Q 1681 3084 1819 3084 
Q 2600 3084 3056 2656 
Q 3513 2228 3513 1497 
Q 3513 744 3044 326 
Q 2575 -91 1722 -91 
Q 1428 -91 1123 -41 
Q 819 9 494 109 
L 494 744 
Q 775 591 1075 516 
Q 1375 441 1709 441 
Q 2250 441 2565 725 
Q 2881 1009 2881 1497 
Q 2881 1984 2565 2268 
Q 2250 2553 1709 2553 
Q 1456 2553 1204 2497 
Q 953 2441 691 2322 
L 691 4666 
z
" transform="scale(0.015625)"/>
       </defs>
       <use xlink:href="#DejaVuSans-32"/>
       <use xlink:href="#DejaVuSans-35" x="63.623047"/>
      </g>
     </g>
    </g>
    <g id="ytick_2">
     <g id="line2d_48">
      <g>
       <use xlink:href="#m19fe4b0041" x="125.777187" y="63.503688" style="stroke: #000000; stroke-width: 0.8"/>
      </g>
     </g>
     <g id="text_48">
      <!-- 5 -->
      <g transform="translate(104.143437 72.241891)scale(0.23 -0.23)">
       <use xlink:href="#DejaVuSans-35"/>
      </g>
     </g>
    </g>
    <g id="ytick_3">
     <g id="line2d_49">
      <g>
       <use xlink:href="#m19fe4b0041" x="125.777187" y="95.673194" style="stroke: #000000; stroke-width: 0.8"/>
      </g>
     </g>
     <g id="text_49">
      <!-- 1 -->
      <g transform="translate(104.143437 104.411397)scale(0.23 -0.23)">
       <defs>
        <path id="DejaVuSans-31" d="M 794 531 
L 1825 531 
L 1825 4091 
L 703 3866 
L 703 4441 
L 1819 4666 
L 2450 4666 
L 2450 531 
L 3481 531 
L 3481 0 
L 794 0 
L 794 531 
z
" transform="scale(0.015625)"/>
       </defs>
       <use xlink:href="#DejaVuSans-31"/>
      </g>
     </g>
    </g>
    <g id="ytick_4">
     <g id="line2d_50">
      <g>
       <use xlink:href="#m19fe4b0041" x="125.777187" y="141.697352" style="stroke: #000000; stroke-width: 0.8"/>
      </g>
     </g>
     <g id="text_50">
      <!-- 0.1 -->
      <g transform="translate(82.2 150.435555)scale(0.23 -0.23)">
       <defs>
        <path id="DejaVuSans-30" d="M 2034 4250 
Q 1547 4250 1301 3770 
Q 1056 3291 1056 2328 
Q 1056 1369 1301 889 
Q 1547 409 2034 409 
Q 2525 409 2770 889 
Q 3016 1369 3016 2328 
Q 3016 3291 2770 3770 
Q 2525 4250 2034 4250 
z
M 2034 4750 
Q 2819 4750 3233 4129 
Q 3647 3509 3647 2328 
Q 3647 1150 3233 529 
Q 2819 -91 2034 -91 
Q 1250 -91 836 529 
Q 422 1150 422 2328 
Q 422 3509 836 4129 
Q 1250 4750 2034 4750 
z
" transform="scale(0.015625)"/>
        <path id="DejaVuSans-2e" d="M 684 794 
L 1344 794 
L 1344 0 
L 684 0 
L 684 794 
z
" transform="scale(0.015625)"/>
       </defs>
       <use xlink:href="#DejaVuSans-30"/>
       <use xlink:href="#DejaVuSans-2e" x="63.623047"/>
       <use xlink:href="#DejaVuSans-31" x="95.410156"/>
      </g>
     </g>
    </g>
    <g id="ytick_5">
     <g id="line2d_51">
      <g>
       <use xlink:href="#m19fe4b0041" x="125.777187" y="187.721509" style="stroke: #000000; stroke-width: 0.8"/>
      </g>
     </g>
     <g id="text_51">
      <!-- 0.01 -->
      <g transform="translate(67.56625 196.459713)scale(0.23 -0.23)">
       <use xlink:href="#DejaVuSans-30"/>
       <use xlink:href="#DejaVuSans-2e" x="63.623047"/>
       <use xlink:href="#DejaVuSans-30" x="95.410156"/>
       <use xlink:href="#DejaVuSans-31" x="159.033203"/>
      </g>
     </g>
    </g>
    <g id="ytick_6">
     <g id="line2d_52">
      <g>
       <use xlink:href="#m19fe4b0041" x="125.777187" y="233.745667" style="stroke: #000000; stroke-width: 0.8"/>
      </g>
     </g>
     <g id="text_52">
      <!-- 0.001 -->
      <g transform="translate(52.9325 242.48387)scale(0.23 -0.23)">
       <use xlink:href="#DejaVuSans-30"/>
       <use xlink:href="#DejaVuSans-2e" x="63.623047"/>
       <use xlink:href="#DejaVuSans-30" x="95.410156"/>
       <use xlink:href="#DejaVuSans-30" x="159.033203"/>
       <use xlink:href="#DejaVuSans-31" x="222.65625"/>
      </g>
     </g>
    </g>
    <g id="ytick_7">
     <g id="line2d_53">
      <g>
       <use xlink:href="#m19fe4b0041" x="125.777187" y="279.769825" style="stroke: #000000; stroke-width: 0.8"/>
      </g>
     </g>
     <g id="text_53">
      <!-- 0.0001 -->
      <g transform="translate(38.29875 288.508028)scale(0.23 -0.23)">
       <use xlink:href="#DejaVuSans-30"/>
       <use xlink:href="#DejaVuSans-2e" x="63.623047"/>
       <use xlink:href="#DejaVuSans-30" x="95.410156"/>
       <use xlink:href="#DejaVuSans-30" x="159.033203"/>
       <use xlink:href="#DejaVuSans-30" x="222.65625"/>
       <use xlink:href="#DejaVuSans-31" x="286.279297"/>
      </g>
     </g>
    </g>
    <g id="ytick_8">
     <g id="line2d_54">
      <defs>
       <path id="mf4de1fdf64" d="M 0 0 
L -2 0 
" style="stroke: #000000; stroke-width: 0.6"/>
      </defs>
      <g>
       <use xlink:href="#mf4de1fdf64" x="125.777187" y="339.648635" style="stroke: #000000; stroke-width: 0.6"/>
      </g>
     </g>
    </g>
    <g id="ytick_9">
     <g id="line2d_55">
      <g>
       <use xlink:href="#mf4de1fdf64" x="125.777187" y="336.004385" style="stroke: #000000; stroke-width: 0.6"/>
      </g>
     </g>
    </g>
    <g id="ytick_10">
     <g id="line2d_56">
      <g>
       <use xlink:href="#mf4de1fdf64" x="125.777187" y="332.923215" style="stroke: #000000; stroke-width: 0.6"/>
      </g>
     </g>
    </g>
    <g id="ytick_11">
     <g id="line2d_57">
      <g>
       <use xlink:href="#mf4de1fdf64" x="125.777187" y="330.254185" style="stroke: #000000; stroke-width: 0.6"/>
      </g>
     </g>
    </g>
    <g id="ytick_12">
     <g id="line2d_58">
      <g>
       <use xlink:href="#mf4de1fdf64" x="125.777187" y="327.899933" style="stroke: #000000; stroke-width: 0.6"/>
      </g>
     </g>
    </g>
    <g id="ytick_13">
     <g id="line2d_59">
      <g>
       <use xlink:href="#mf4de1fdf64" x="125.777187" y="311.939331" style="stroke: #000000; stroke-width: 0.6"/>
      </g>
     </g>
    </g>
    <g id="ytick_14">
     <g id="line2d_60">
      <g>
       <use xlink:href="#mf4de1fdf64" x="125.777187" y="303.834879" style="stroke: #000000; stroke-width: 0.6"/>
      </g>
     </g>
    </g>
    <g id="ytick_15">
     <g id="line2d_61">
      <g>
       <use xlink:href="#mf4de1fdf64" x="125.777187" y="298.084679" style="stroke: #000000; stroke-width: 0.6"/>
      </g>
     </g>
    </g>
    <g id="ytick_16">
     <g id="line2d_62">
      <g>
       <use xlink:href="#mf4de1fdf64" x="125.777187" y="293.624477" style="stroke: #000000; stroke-width: 0.6"/>
      </g>
     </g>
    </g>
    <g id="ytick_17">
     <g id="line2d_63">
      <g>
       <use xlink:href="#mf4de1fdf64" x="125.777187" y="289.980227" style="stroke: #000000; stroke-width: 0.6"/>
      </g>
     </g>
    </g>
    <g id="ytick_18">
     <g id="line2d_64">
      <g>
       <use xlink:href="#mf4de1fdf64" x="125.777187" y="286.899057" style="stroke: #000000; stroke-width: 0.6"/>
      </g>
     </g>
    </g>
    <g id="ytick_19">
     <g id="line2d_65">
      <g>
       <use xlink:href="#mf4de1fdf64" x="125.777187" y="284.230027" style="stroke: #000000; stroke-width: 0.6"/>
      </g>
     </g>
    </g>
    <g id="ytick_20">
     <g id="line2d_66">
      <g>
       <use xlink:href="#mf4de1fdf64" x="125.777187" y="281.875775" style="stroke: #000000; stroke-width: 0.6"/>
      </g>
     </g>
    </g>
    <g id="ytick_21">
     <g id="line2d_67">
      <g>
       <use xlink:href="#mf4de1fdf64" x="125.777187" y="265.915173" style="stroke: #000000; stroke-width: 0.6"/>
      </g>
     </g>
    </g>
    <g id="ytick_22">
     <g id="line2d_68">
      <g>
       <use xlink:href="#mf4de1fdf64" x="125.777187" y="257.810721" style="stroke: #000000; stroke-width: 0.6"/>
      </g>
     </g>
    </g>
    <g id="ytick_23">
     <g id="line2d_69">
      <g>
       <use xlink:href="#mf4de1fdf64" x="125.777187" y="252.060521" style="stroke: #000000; stroke-width: 0.6"/>
      </g>
     </g>
    </g>
    <g id="ytick_24">
     <g id="line2d_70">
      <g>
       <use xlink:href="#mf4de1fdf64" x="125.777187" y="247.600319" style="stroke: #000000; stroke-width: 0.6"/>
      </g>
     </g>
    </g>
    <g id="ytick_25">
     <g id="line2d_71">
      <g>
       <use xlink:href="#mf4de1fdf64" x="125.777187" y="243.956069" style="stroke: #000000; stroke-width: 0.6"/>
      </g>
     </g>
    </g>
    <g id="ytick_26">
     <g id="line2d_72">
      <g>
       <use xlink:href="#mf4de1fdf64" x="125.777187" y="240.8749" style="stroke: #000000; stroke-width: 0.6"/>
      </g>
     </g>
    </g>
    <g id="ytick_27">
     <g id="line2d_73">
      <g>
       <use xlink:href="#mf4de1fdf64" x="125.777187" y="238.205869" style="stroke: #000000; stroke-width: 0.6"/>
      </g>
     </g>
    </g>
    <g id="ytick_28">
     <g id="line2d_74">
      <g>
       <use xlink:href="#mf4de1fdf64" x="125.777187" y="235.851617" style="stroke: #000000; stroke-width: 0.6"/>
      </g>
     </g>
    </g>
    <g id="ytick_29">
     <g id="line2d_75">
      <g>
       <use xlink:href="#mf4de1fdf64" x="125.777187" y="219.891015" style="stroke: #000000; stroke-width: 0.6"/>
      </g>
     </g>
    </g>
    <g id="ytick_30">
     <g id="line2d_76">
      <g>
       <use xlink:href="#mf4de1fdf64" x="125.777187" y="211.786563" style="stroke: #000000; stroke-width: 0.6"/>
      </g>
     </g>
    </g>
    <g id="ytick_31">
     <g id="line2d_77">
      <g>
       <use xlink:href="#mf4de1fdf64" x="125.777187" y="206.036363" style="stroke: #000000; stroke-width: 0.6"/>
      </g>
     </g>
    </g>
    <g id="ytick_32">
     <g id="line2d_78">
      <g>
       <use xlink:href="#mf4de1fdf64" x="125.777187" y="201.576162" style="stroke: #000000; stroke-width: 0.6"/>
      </g>
     </g>
    </g>
    <g id="ytick_33">
     <g id="line2d_79">
      <g>
       <use xlink:href="#mf4de1fdf64" x="125.777187" y="197.931911" style="stroke: #000000; stroke-width: 0.6"/>
      </g>
     </g>
    </g>
    <g id="ytick_34">
     <g id="line2d_80">
      <g>
       <use xlink:href="#mf4de1fdf64" x="125.777187" y="194.850742" style="stroke: #000000; stroke-width: 0.6"/>
      </g>
     </g>
    </g>
    <g id="ytick_35">
     <g id="line2d_81">
      <g>
       <use xlink:href="#mf4de1fdf64" x="125.777187" y="192.181711" style="stroke: #000000; stroke-width: 0.6"/>
      </g>
     </g>
    </g>
    <g id="ytick_36">
     <g id="line2d_82">
      <g>
       <use xlink:href="#mf4de1fdf64" x="125.777187" y="189.827459" style="stroke: #000000; stroke-width: 0.6"/>
      </g>
     </g>
    </g>
    <g id="ytick_37">
     <g id="line2d_83">
      <g>
       <use xlink:href="#mf4de1fdf64" x="125.777187" y="173.866857" style="stroke: #000000; stroke-width: 0.6"/>
      </g>
     </g>
    </g>
    <g id="ytick_38">
     <g id="line2d_84">
      <g>
       <use xlink:href="#mf4de1fdf64" x="125.777187" y="165.762406" style="stroke: #000000; stroke-width: 0.6"/>
      </g>
     </g>
    </g>
    <g id="ytick_39">
     <g id="line2d_85">
      <g>
       <use xlink:href="#mf4de1fdf64" x="125.777187" y="160.012205" style="stroke: #000000; stroke-width: 0.6"/>
      </g>
     </g>
    </g>
    <g id="ytick_40">
     <g id="line2d_86">
      <g>
       <use xlink:href="#mf4de1fdf64" x="125.777187" y="155.552004" style="stroke: #000000; stroke-width: 0.6"/>
      </g>
     </g>
    </g>
    <g id="ytick_41">
     <g id="line2d_87">
      <g>
       <use xlink:href="#mf4de1fdf64" x="125.777187" y="151.907754" style="stroke: #000000; stroke-width: 0.6"/>
      </g>
     </g>
    </g>
    <g id="ytick_42">
     <g id="line2d_88">
      <g>
       <use xlink:href="#mf4de1fdf64" x="125.777187" y="148.826584" style="stroke: #000000; stroke-width: 0.6"/>
      </g>
     </g>
    </g>
    <g id="ytick_43">
     <g id="line2d_89">
      <g>
       <use xlink:href="#mf4de1fdf64" x="125.777187" y="146.157553" style="stroke: #000000; stroke-width: 0.6"/>
      </g>
     </g>
    </g>
    <g id="ytick_44">
     <g id="line2d_90">
      <g>
       <use xlink:href="#mf4de1fdf64" x="125.777187" y="143.803302" style="stroke: #000000; stroke-width: 0.6"/>
      </g>
     </g>
    </g>
    <g id="ytick_45">
     <g id="line2d_91">
      <g>
       <use xlink:href="#mf4de1fdf64" x="125.777187" y="127.8427" style="stroke: #000000; stroke-width: 0.6"/>
      </g>
     </g>
    </g>
    <g id="ytick_46">
     <g id="line2d_92">
      <g>
       <use xlink:href="#mf4de1fdf64" x="125.777187" y="119.738248" style="stroke: #000000; stroke-width: 0.6"/>
      </g>
     </g>
    </g>
    <g id="ytick_47">
     <g id="line2d_93">
      <g>
       <use xlink:href="#mf4de1fdf64" x="125.777187" y="113.988048" style="stroke: #000000; stroke-width: 0.6"/>
      </g>
     </g>
    </g>
    <g id="ytick_48">
     <g id="line2d_94">
      <g>
       <use xlink:href="#mf4de1fdf64" x="125.777187" y="109.527846" style="stroke: #000000; stroke-width: 0.6"/>
      </g>
     </g>
    </g>
    <g id="ytick_49">
     <g id="line2d_95">
      <g>
       <use xlink:href="#mf4de1fdf64" x="125.777187" y="105.883596" style="stroke: #000000; stroke-width: 0.6"/>
      </g>
     </g>
    </g>
    <g id="ytick_50">
     <g id="line2d_96">
      <g>
       <use xlink:href="#mf4de1fdf64" x="125.777187" y="102.802426" style="stroke: #000000; stroke-width: 0.6"/>
      </g>
     </g>
    </g>
    <g id="ytick_51">
     <g id="line2d_97">
      <g>
       <use xlink:href="#mf4de1fdf64" x="125.777187" y="100.133396" style="stroke: #000000; stroke-width: 0.6"/>
      </g>
     </g>
    </g>
    <g id="ytick_52">
     <g id="line2d_98">
      <g>
       <use xlink:href="#mf4de1fdf64" x="125.777187" y="97.779144" style="stroke: #000000; stroke-width: 0.6"/>
      </g>
     </g>
    </g>
    <g id="ytick_53">
     <g id="line2d_99">
      <g>
       <use xlink:href="#mf4de1fdf64" x="125.777187" y="81.818542" style="stroke: #000000; stroke-width: 0.6"/>
      </g>
     </g>
    </g>
    <g id="ytick_54">
     <g id="line2d_100">
      <g>
       <use xlink:href="#mf4de1fdf64" x="125.777187" y="73.71409" style="stroke: #000000; stroke-width: 0.6"/>
      </g>
     </g>
    </g>
    <g id="ytick_55">
     <g id="line2d_101">
      <g>
       <use xlink:href="#mf4de1fdf64" x="125.777187" y="67.96389" style="stroke: #000000; stroke-width: 0.6"/>
      </g>
     </g>
    </g>
    <g id="ytick_56">
     <g id="line2d_102">
      <g>
       <use xlink:href="#mf4de1fdf64" x="125.777187" y="59.859438" style="stroke: #000000; stroke-width: 0.6"/>
      </g>
     </g>
    </g>
    <g id="ytick_57">
     <g id="line2d_103">
      <g>
       <use xlink:href="#mf4de1fdf64" x="125.777187" y="56.778268" style="stroke: #000000; stroke-width: 0.6"/>
      </g>
     </g>
    </g>
    <g id="ytick_58">
     <g id="line2d_104">
      <g>
       <use xlink:href="#mf4de1fdf64" x="125.777187" y="54.109238" style="stroke: #000000; stroke-width: 0.6"/>
      </g>
     </g>
    </g>
    <g id="ytick_59">
     <g id="line2d_105">
      <g>
       <use xlink:href="#mf4de1fdf64" x="125.777187" y="51.754986" style="stroke: #000000; stroke-width: 0.6"/>
      </g>
     </g>
    </g>
    <g id="ytick_60">
     <g id="line2d_106">
      <g>
       <use xlink:href="#mf4de1fdf64" x="125.777187" y="35.794384" style="stroke: #000000; stroke-width: 0.6"/>
      </g>
     </g>
    </g>
    <g id="ytick_61">
     <g id="line2d_107">
      <g>
       <use xlink:href="#mf4de1fdf64" x="125.777187" y="27.689932" style="stroke: #000000; stroke-width: 0.6"/>
      </g>
     </g>
    </g>
    <g id="ytick_62">
     <g id="line2d_108">
      <g>
       <use xlink:href="#mf4de1fdf64" x="125.777187" y="21.939732" style="stroke: #000000; stroke-width: 0.6"/>
      </g>
     </g>
    </g>
    <g id="ytick_63">
     <g id="line2d_109">
      <g>
       <use xlink:href="#mf4de1fdf64" x="125.777187" y="17.47953" style="stroke: #000000; stroke-width: 0.6"/>
      </g>
     </g>
    </g>
    <g id="ytick_64">
     <g id="line2d_110">
      <g>
       <use xlink:href="#mf4de1fdf64" x="125.777187" y="13.83528" style="stroke: #000000; stroke-width: 0.6"/>
      </g>
     </g>
    </g>
    <g id="ytick_65">
     <g id="line2d_111">
      <g>
       <use xlink:href="#mf4de1fdf64" x="125.777187" y="10.754111" style="stroke: #000000; stroke-width: 0.6"/>
      </g>
     </g>
    </g>
    <g id="ytick_66">
     <g id="line2d_112">
      <g>
       <use xlink:href="#mf4de1fdf64" x="125.777187" y="8.08508" style="stroke: #000000; stroke-width: 0.6"/>
      </g>
     </g>
    </g>
    <g id="text_54">
     <!-- % of corpus -->
     <g transform="translate(28.475625 256.288437)rotate(-90)scale(0.28 -0.28)">
      <defs>
       <path id="DejaVuSans-25" d="M 4653 2053 
Q 4381 2053 4226 1822 
Q 4072 1591 4072 1178 
Q 4072 772 4226 539 
Q 4381 306 4653 306 
Q 4919 306 5073 539 
Q 5228 772 5228 1178 
Q 5228 1588 5073 1820 
Q 4919 2053 4653 2053 
z
M 4653 2450 
Q 5147 2450 5437 2106 
Q 5728 1763 5728 1178 
Q 5728 594 5436 251 
Q 5144 -91 4653 -91 
Q 4153 -91 3862 251 
Q 3572 594 3572 1178 
Q 3572 1766 3864 2108 
Q 4156 2450 4653 2450 
z
M 1428 4353 
Q 1159 4353 1004 4120 
Q 850 3888 850 3481 
Q 850 3069 1003 2837 
Q 1156 2606 1428 2606 
Q 1700 2606 1854 2837 
Q 2009 3069 2009 3481 
Q 2009 3884 1853 4118 
Q 1697 4353 1428 4353 
z
M 4250 4750 
L 4750 4750 
L 1831 -91 
L 1331 -91 
L 4250 4750 
z
M 1428 4750 
Q 1922 4750 2215 4408 
Q 2509 4066 2509 3481 
Q 2509 2891 2217 2550 
Q 1925 2209 1428 2209 
Q 931 2209 642 2551 
Q 353 2894 353 3481 
Q 353 4063 643 4406 
Q 934 4750 1428 4750 
z
" transform="scale(0.015625)"/>
       <path id="DejaVuSans-20" transform="scale(0.015625)"/>
      </defs>
      <use xlink:href="#DejaVuSans-25"/>
      <use xlink:href="#DejaVuSans-20" x="95.019531"/>
      <use xlink:href="#DejaVuSans-6f" x="126.806641"/>
      <use xlink:href="#DejaVuSans-66" x="187.988281"/>
      <use xlink:href="#DejaVuSans-20" x="223.193359"/>
      <use xlink:href="#DejaVuSans-63" x="254.980469"/>
      <use xlink:href="#DejaVuSans-6f" x="309.960938"/>
      <use xlink:href="#DejaVuSans-72" x="371.142578"/>
      <use xlink:href="#DejaVuSans-70" x="412.255859"/>
      <use xlink:href="#DejaVuSans-75" x="475.732422"/>
      <use xlink:href="#DejaVuSans-73" x="539.111328"/>
     </g>
    </g>
   </g>
   <g id="patch_141">
    <path d="M 125.777187 339.84 
L 125.777187 7.2 
" style="fill: none; stroke: #000000; stroke-width: 0.8; stroke-linejoin: miter; stroke-linecap: square"/>
   </g>
   <g id="patch_142">
    <path d="M 125.777187 339.84 
L 2134.577188 339.84 
" style="fill: none; stroke: #000000; stroke-width: 0.8; stroke-linejoin: miter; stroke-linecap: square"/>
   </g>
   <g id="legend_1">
    <g id="patch_143">
     <path d="M 1447.255938 53.675625 
L 1503.255938 53.675625 
L 1503.255938 34.075625 
L 1447.255938 34.075625 
z
" style="fill: #990344"/>
    </g>
    <g id="text_55">
     <!-- xP3 -->
     <g transform="translate(1525.655938 53.675625)scale(0.28 -0.28)">
      <defs>
       <path id="DejaVuSans-50" d="M 1259 4147 
L 1259 2394 
L 2053 2394 
Q 2494 2394 2734 2622 
Q 2975 2850 2975 3272 
Q 2975 3691 2734 3919 
Q 2494 4147 2053 4147 
L 1259 4147 
z
M 628 4666 
L 2053 4666 
Q 2838 4666 3239 4311 
Q 3641 3956 3641 3272 
Q 3641 2581 3239 2228 
Q 2838 1875 2053 1875 
L 1259 1875 
L 1259 0 
L 628 0 
L 628 4666 
z
" transform="scale(0.015625)"/>
       <path id="DejaVuSans-33" d="M 2597 2516 
Q 3050 2419 3304 2112 
Q 3559 1806 3559 1356 
Q 3559 666 3084 287 
Q 2609 -91 1734 -91 
Q 1441 -91 1130 -33 
Q 819 25 488 141 
L 488 750 
Q 750 597 1062 519 
Q 1375 441 1716 441 
Q 2309 441 2620 675 
Q 2931 909 2931 1356 
Q 2931 1769 2642 2001 
Q 2353 2234 1838 2234 
L 1294 2234 
L 1294 2753 
L 1863 2753 
Q 2328 2753 2575 2939 
Q 2822 3125 2822 3475 
Q 2822 3834 2567 4026 
Q 2313 4219 1838 4219 
Q 1578 4219 1281 4162 
Q 984 4106 628 3988 
L 628 4550 
Q 988 4650 1302 4700 
Q 1616 4750 1894 4750 
Q 2613 4750 3031 4423 
Q 3450 4097 3450 3541 
Q 3450 3153 3228 2886 
Q 3006 2619 2597 2516 
z
" transform="scale(0.015625)"/>
      </defs>
      <use xlink:href="#DejaVuSans-78"/>
      <use xlink:href="#DejaVuSans-50" x="59.179688"/>
      <use xlink:href="#DejaVuSans-33" x="119.482422"/>
     </g>
    </g>
    <g id="patch_144">
     <path d="M 1632.926563 53.675625 
L 1688.926563 53.675625 
L 1688.926563 34.075625 
L 1632.926563 34.075625 
z
" style="fill: #12009e"/>
    </g>
    <g id="text_56">
     <!-- ROOTS -->
     <g transform="translate(1711.326563 53.675625)scale(0.28 -0.28)">
      <defs>
       <path id="DejaVuSans-52" d="M 2841 2188 
Q 3044 2119 3236 1894 
Q 3428 1669 3622 1275 
L 4263 0 
L 3584 0 
L 2988 1197 
Q 2756 1666 2539 1819 
Q 2322 1972 1947 1972 
L 1259 1972 
L 1259 0 
L 628 0 
L 628 4666 
L 2053 4666 
Q 2853 4666 3247 4331 
Q 3641 3997 3641 3322 
Q 3641 2881 3436 2590 
Q 3231 2300 2841 2188 
z
M 1259 4147 
L 1259 2491 
L 2053 2491 
Q 2509 2491 2742 2702 
Q 2975 2913 2975 3322 
Q 2975 3731 2742 3939 
Q 2509 4147 2053 4147 
L 1259 4147 
z
" transform="scale(0.015625)"/>
       <path id="DejaVuSans-4f" d="M 2522 4238 
Q 1834 4238 1429 3725 
Q 1025 3213 1025 2328 
Q 1025 1447 1429 934 
Q 1834 422 2522 422 
Q 3209 422 3611 934 
Q 4013 1447 4013 2328 
Q 4013 3213 3611 3725 
Q 3209 4238 2522 4238 
z
M 2522 4750 
Q 3503 4750 4090 4092 
Q 4678 3434 4678 2328 
Q 4678 1225 4090 567 
Q 3503 -91 2522 -91 
Q 1538 -91 948 565 
Q 359 1222 359 2328 
Q 359 3434 948 4092 
Q 1538 4750 2522 4750 
z
" transform="scale(0.015625)"/>
       <path id="DejaVuSans-54" d="M -19 4666 
L 3928 4666 
L 3928 4134 
L 2272 4134 
L 2272 0 
L 1638 0 
L 1638 4134 
L -19 4134 
L -19 4666 
z
" transform="scale(0.015625)"/>
       <path id="DejaVuSans-53" d="M 3425 4513 
L 3425 3897 
Q 3066 4069 2747 4153 
Q 2428 4238 2131 4238 
Q 1616 4238 1336 4038 
Q 1056 3838 1056 3469 
Q 1056 3159 1242 3001 
Q 1428 2844 1947 2747 
L 2328 2669 
Q 3034 2534 3370 2195 
Q 3706 1856 3706 1288 
Q 3706 609 3251 259 
Q 2797 -91 1919 -91 
Q 1588 -91 1214 -16 
Q 841 59 441 206 
L 441 856 
Q 825 641 1194 531 
Q 1563 422 1919 422 
Q 2459 422 2753 634 
Q 3047 847 3047 1241 
Q 3047 1584 2836 1778 
Q 2625 1972 2144 2069 
L 1759 2144 
Q 1053 2284 737 2584 
Q 422 2884 422 3419 
Q 422 4038 858 4394 
Q 1294 4750 2059 4750 
Q 2388 4750 2728 4690 
Q 3069 4631 3425 4513 
z
" transform="scale(0.015625)"/>
      </defs>
      <use xlink:href="#DejaVuSans-52"/>
      <use xlink:href="#DejaVuSans-4f" x="69.482422"/>
      <use xlink:href="#DejaVuSans-4f" x="148.193359"/>
      <use xlink:href="#DejaVuSans-54" x="226.904297"/>
      <use xlink:href="#DejaVuSans-53" x="287.988281"/>
     </g>
    </g>
    <g id="patch_145">
     <path d="M 1865.742188 53.675625 
L 1921.742188 53.675625 
L 1921.742188 34.075625 
L 1865.742188 34.075625 
z
" style="fill: #fb8500"/>
    </g>
    <g id="text_57">
     <!-- mT5 corpus -->
     <g transform="translate(1944.142188 53.675625)scale(0.28 -0.28)">
      <use xlink:href="#DejaVuSans-6d"/>
      <use xlink:href="#DejaVuSans-54" x="97.412109"/>
      <use xlink:href="#DejaVuSans-35" x="158.496094"/>
      <use xlink:href="#DejaVuSans-20" x="222.119141"/>
      <use xlink:href="#DejaVuSans-63" x="253.90625"/>
      <use xlink:href="#DejaVuSans-6f" x="308.886719"/>
      <use xlink:href="#DejaVuSans-72" x="370.068359"/>
      <use xlink:href="#DejaVuSans-70" x="411.181641"/>
      <use xlink:href="#DejaVuSans-75" x="474.658203"/>
      <use xlink:href="#DejaVuSans-73" x="538.037109"/>
     </g>
    </g>
   </g>
  </g>
 </g>
 <defs>
  <clipPath id="p92b894fef2">
   <rect x="125.777187" y="7.2" width="2008.8" height="332.64"/>
  </clipPath>
 </defs>
</svg>
